<svg width="28" height="28" viewBox="0 0 28 28" fill="none" xmlns="http://www.w3.org/2000/svg">
<circle cx="14" cy="14" r="14" fill="white"/>
<path d="M10.664 11.702C10.496 11.834 10.316 11.852 10.124 11.756C9.944 11.66 9.854 11.51 9.854 11.306V10.586C9.854 9.914 10.124 9.368 10.664 8.948L12.59 7.472C13.13 7.064 13.742 6.86 14.426 6.86H14.966C15.242 6.86 15.476 6.962 15.668 7.166C15.872 7.37 15.974 7.61 15.974 7.886V18.974C15.974 19.25 15.872 19.49 15.668 19.694C15.476 19.898 15.242 20 14.966 20H14.426C14.15 20 13.91 19.898 13.706 19.694C13.502 19.49 13.4 19.25 13.4 18.974V9.632L13.382 9.614L13.364 9.632L10.664 11.702Z" fill="#1859A6"/>
</svg>
