<svg width="28" height="28" viewBox="0 0 28 28" fill="none" xmlns="http://www.w3.org/2000/svg">
<circle cx="14" cy="14" r="14" fill="#1859A6"/>
<path d="M18.08 10.514C18.08 11.642 17.72 12.728 17 13.772C16.292 14.804 14.912 16.178 12.86 17.894C12.836 17.918 12.824 17.936 12.824 17.948C12.824 17.96 12.83 17.966 12.842 17.966H17.09C17.366 17.966 17.606 18.068 17.81 18.272C18.014 18.464 18.116 18.698 18.116 18.974C18.116 19.25 18.014 19.49 17.81 19.694C17.606 19.898 17.366 20 17.09 20H10.484C10.208 20 9.968 19.898 9.764 19.694C9.572 19.49 9.476 19.25 9.476 18.974C9.476 18.29 9.734 17.744 10.25 17.336C12.326 15.68 13.718 14.39 14.426 13.466C15.134 12.542 15.488 11.642 15.488 10.766C15.488 9.434 14.774 8.768 13.346 8.768C12.614 8.768 11.726 8.972 10.682 9.38C10.454 9.476 10.238 9.458 10.034 9.326C9.842 9.194 9.746 9.014 9.746 8.786V8.48C9.746 8.168 9.83 7.886 9.998 7.634C10.178 7.37 10.412 7.196 10.7 7.112C11.72 6.824 12.722 6.68 13.706 6.68C15.11 6.68 16.19 7.016 16.946 7.688C17.702 8.36 18.08 9.302 18.08 10.514Z" fill="white"/>
</svg>
