<svg width="28" height="28" viewBox="0 0 28 28" fill="none" xmlns="http://www.w3.org/2000/svg">
<circle cx="14" cy="14" r="14" fill="#1859A6"/>
<path d="M10.466 8.894C10.19 8.894 9.95 8.798 9.746 8.606C9.542 8.402 9.44 8.162 9.44 7.886C9.44 7.61 9.542 7.37 9.746 7.166C9.95 6.962 10.19 6.86 10.466 6.86H16.856C17.132 6.86 17.366 6.962 17.558 7.166C17.762 7.37 17.864 7.61 17.864 7.886C17.864 8.57 17.612 9.134 17.108 9.578L14.192 12.224C14.18 12.236 14.174 12.248 14.174 12.26C14.174 12.272 14.18 12.278 14.192 12.278H14.48C15.584 12.278 16.454 12.596 17.09 13.232C17.726 13.856 18.044 14.732 18.044 15.86C18.044 17.24 17.624 18.308 16.784 19.064C15.944 19.808 14.744 20.18 13.184 20.18C12.26 20.18 11.366 20.072 10.502 19.856C10.214 19.784 9.98 19.622 9.8 19.37C9.62 19.118 9.53 18.836 9.53 18.524V18.326C9.53 18.086 9.626 17.9 9.818 17.768C10.022 17.624 10.244 17.588 10.484 17.66C11.456 17.984 12.32 18.146 13.076 18.146C13.868 18.146 14.48 17.954 14.912 17.57C15.344 17.186 15.56 16.628 15.56 15.896C15.56 15.224 15.314 14.744 14.822 14.456C14.342 14.156 13.49 14.006 12.266 14.006H12.068C11.828 14.006 11.618 13.916 11.438 13.736C11.27 13.556 11.186 13.346 11.186 13.106C11.186 12.506 11.402 12.008 11.834 11.612L14.768 8.948C14.78 8.936 14.786 8.924 14.786 8.912C14.786 8.9 14.78 8.894 14.768 8.894H10.466Z" fill="white"/>
</svg>
