<svg width="365" height="365" viewBox="0 0 365 365" fill="none" xmlns="http://www.w3.org/2000/svg">
<circle cx="182.5" cy="182.5" r="182.5" fill="#E0E0E0"/>
<path d="M155.386 181.384H221.076C215.485 205.144 214.088 202.349 219.678 237.29L151.194 235.892C158.181 219.12 155.387 219.12 155.386 181.384Z" fill="#FBDBCE"/>
<ellipse cx="186.136" cy="248.473" rx="57.3037" ry="22.3624" fill="#FBDBCE"/>
<path fill-rule="evenodd" clip-rule="evenodd" d="M120.402 354.164V240.986H142.442C182.674 273.05 203.979 260.678 236.108 240.986H255.393V349.862C233.066 359.6 208.413 365.001 182.5 365.001C160.696 365.001 139.786 361.177 120.402 354.164Z" fill="#1859A6"/>
<path fill-rule="evenodd" clip-rule="evenodd" d="M168.334 364.458C133.578 361.79 101.548 349.386 74.9653 329.969C75.6389 301.624 76.8829 272.426 78.9288 243.384C102.537 233.154 110.589 233.006 128.793 232.674C133.486 232.588 138.855 232.49 145.34 232.203C147.073 274.601 154.167 302.476 162.302 334.447L162.302 334.447C164.211 341.947 166.177 349.673 168.145 357.865C168.215 360.083 168.278 362.281 168.334 364.458Z" fill="white"/>
<ellipse cx="186.135" cy="150.635" rx="51.7131" ry="64.292" fill="#FBDBCE"/>
<ellipse cx="187.533" cy="100.32" rx="47.5202" ry="19.5671" fill="#8C7F53"/>
<ellipse cx="144.205" cy="126.876" rx="6.98826" ry="32.146" fill="#8C7F53"/>
<path d="M168.878 173.68C187.767 180.663 198.653 180.782 216.689 173.68C216.689 173.68 220.272 169.701 216.689 180.935C213.106 192.168 182.64 200.709 168.878 179.726C167.559 178.132 167.769 176.681 168.878 173.68Z" fill="white"/>
<path fill-rule="evenodd" clip-rule="evenodd" d="M205.831 363.523C208.092 348.161 210.853 334.755 213.488 321.959C219.391 293.297 224.664 267.695 222.284 230.012C255.551 236.966 271.565 241.968 286.576 256.567C285.164 285.055 284.084 310.765 283.32 334.648C260.56 349.76 234.214 359.902 205.831 363.523Z" fill="white"/>
<path fill-rule="evenodd" clip-rule="evenodd" d="M104.062 347.331C103.206 346.923 102.354 346.509 101.506 346.088C94.8204 326.37 95.1952 306.151 99.4791 290.449C101.793 281.969 105.26 274.756 109.42 269.641C113.569 264.539 118.509 261.41 123.753 261.41C128.924 261.41 133.854 263.941 138.08 268.405C142.303 272.867 145.871 279.303 148.366 287.269C153.358 303.205 154.11 325.418 147.079 350.73L145.152 350.195C152.097 325.191 151.316 303.378 146.457 287.867C144.027 280.109 140.589 273.966 136.627 269.78C132.667 265.597 128.23 263.41 123.753 263.41C119.347 263.41 114.921 266.047 110.972 270.903C107.033 275.746 103.671 282.685 101.409 290.976C97.0856 306.821 96.8312 327.425 104.062 347.331Z" fill="#B0B0B0"/>
<circle cx="146.969" cy="350.465" r="4.84513" fill="#C4C4C4"/>
<line x1="108.878" y1="274.49" x2="141.422" y2="274.49" stroke="#B0B0B0" stroke-linecap="round"/>
<path d="M124.189 261.337C122.767 226.057 132.978 232.609 153.914 228.416" stroke="#B0B0B0" stroke-width="2"/>
<path d="M218.078 228.211C233.349 228.21 255.353 269.313 250.123 300.313" stroke="#B0B0B0" stroke-width="2"/>
<circle cx="248.724" cy="307.302" r="9.78356" fill="#C4C4C4"/>
<path fill-rule="evenodd" clip-rule="evenodd" d="M323.414 298.479C311.915 312.435 298.382 324.654 283.27 334.681C281.911 331.799 280.456 328.796 278.902 325.667L274.461 247.572C294.931 261.518 310.927 279.354 323.414 298.479Z" fill="white"/>
<path fill-rule="evenodd" clip-rule="evenodd" d="M72.5392 328.167C59.0431 317.963 47.0095 305.927 36.8086 292.429C46.723 275.802 60.6811 259.253 79.6745 243.182L76.8822 318.655C75.2645 321.822 73.8191 324.993 72.5392 328.167Z" fill="white"/>
</svg>
