<svg width="113" height="113" viewBox="0 0 113 113" fill="none" xmlns="http://www.w3.org/2000/svg">
<circle cx="56.5" cy="56.5" r="56.5" fill="#E0E0E0"/>
<path d="M48.106 56.1543H68.4429C66.712 63.5102 66.2793 62.6448 68.0101 73.4622L46.8081 73.0295C48.9714 67.8371 48.1062 67.8371 48.106 56.1543Z" fill="#FBDBCE"/>
<ellipse cx="57.6259" cy="76.9241" rx="17.7406" ry="6.92316" fill="#FBDBCE"/>
<path fill-rule="evenodd" clip-rule="evenodd" d="M37.2754 109.645V74.6064H44.0985C56.5541 84.5331 63.15 80.7029 73.0967 74.6064H79.0669V108.313C72.1548 111.328 64.5227 113 56.5 113C49.7499 113 43.2763 111.816 37.2754 109.645Z" fill="#1859A6"/>
<path fill-rule="evenodd" clip-rule="evenodd" d="M52.1143 112.832C41.3543 112.006 31.4381 108.166 23.2085 102.155C23.417 93.3795 23.8022 84.3402 24.4356 75.3493C31.7445 72.182 34.2371 72.1364 39.8728 72.0334C41.326 72.0068 42.9881 71.9764 44.9957 71.8877C45.5322 85.0135 47.7283 93.6435 50.2471 103.541L50.2471 103.541C50.838 105.863 51.4467 108.255 52.0558 110.791C52.0775 111.478 52.097 112.158 52.1143 112.832Z" fill="white"/>
<ellipse cx="57.6255" cy="46.6346" rx="16.0098" ry="19.9041" fill="#FBDBCE"/>
<ellipse cx="58.0584" cy="31.0578" rx="14.7117" ry="6.05777" fill="#8C7F53"/>
<ellipse cx="44.6444" cy="39.2792" rx="2.16349" ry="9.95205" fill="#8C7F53"/>
<path d="M52.2828 53.7695C58.1308 55.9313 61.5008 55.9681 67.0846 53.7695C67.0846 53.7695 68.1938 52.5375 67.0846 56.0153C65.9755 59.4932 56.5433 62.1371 52.2828 55.641C51.8745 55.1476 51.9397 54.6983 52.2828 53.7695Z" fill="white"/>
<path fill-rule="evenodd" clip-rule="evenodd" d="M63.7227 112.543C64.4228 107.787 65.2776 103.636 66.0934 99.6749C67.9209 90.8015 69.5533 82.8753 68.8165 71.209C79.1155 73.3619 84.0732 74.9105 88.7206 79.4302C88.2834 88.2499 87.9491 96.2093 87.7125 103.603C80.6662 108.282 72.5098 111.421 63.7227 112.543Z" fill="white"/>
<path fill-rule="evenodd" clip-rule="evenodd" d="M30.555 106.704C28.6641 100.672 28.8198 94.5462 30.1315 89.7382C30.8657 87.0472 31.9754 84.7197 33.3395 83.0423C34.6932 81.3777 36.3997 80.2393 38.3124 80.2393C40.1526 80.2393 41.8492 81.1415 43.2493 82.6207C44.6472 84.0975 45.7963 86.1912 46.5912 88.7289C48.1828 93.8095 48.4055 100.824 46.1991 108.767L44.272 108.232C46.3926 100.597 46.1409 93.9818 44.6827 89.3267C43.9528 86.9966 42.9331 85.196 41.7968 83.9955C40.6626 82.7974 39.4593 82.2393 38.3124 82.2393C37.2379 82.2393 36.0447 82.8857 34.8912 84.3041C33.7482 85.7097 32.7434 87.7632 32.061 90.2646C30.7101 95.2159 30.6749 101.728 33.1118 107.947C32.2476 107.554 31.3952 107.139 30.555 106.704Z" fill="#B0B0B0"/>
<circle cx="45.5" cy="108.5" r="1.5" fill="#C4C4C4"/>
<line x1="34.0527" y1="84.6338" x2="43.4375" y2="84.6338" stroke="#B0B0B0" stroke-linecap="round"/>
<path d="M38.4475 80.9069C38.0073 69.9843 41.1687 72.013 47.6503 70.7148" stroke="#B0B0B0" stroke-width="2"/>
<path d="M67.5146 70.6513C72.2425 70.6512 79.0545 83.376 77.4356 92.9735" stroke="#B0B0B0" stroke-width="2"/>
<circle cx="77.0025" cy="95.1373" r="3.02888" fill="#C4C4C4"/>
<path fill-rule="evenodd" clip-rule="evenodd" d="M100.126 92.4058C96.5656 96.7265 92.376 100.509 87.6973 103.613C87.2768 102.721 86.8263 101.792 86.3452 100.823L84.9702 76.6455C91.3075 80.9629 96.2598 86.4849 100.126 92.4058Z" fill="white"/>
<path fill-rule="evenodd" clip-rule="evenodd" d="M22.4573 101.597C18.2791 98.4378 14.5536 94.7115 11.3955 90.5325C14.4649 85.385 18.7862 80.2617 24.6663 75.2861L23.8019 98.6518C23.3011 99.6325 22.8536 100.614 22.4573 101.597Z" fill="white"/>
</svg>
