<svg width="586" height="478" viewBox="0 0 586 478" fill="none" xmlns="http://www.w3.org/2000/svg">
<path d="M584.578 231.743C569.092 265.985 493.866 302.979 538.332 339.249C686.366 460.001 414.29 477.224 316.996 477.224C-118.635 477.224 7.76776 266.485 49.4159 231.743C91.0641 197 123.063 189.001 154.564 136.5C186.065 83.9997 215.564 13.001 332.564 22.0005C449.564 31 600.064 197.5 584.578 231.743Z" fill="#1859A6"/>
<path d="M550.315 311.918C550.315 322.144 565.525 331.031 556.288 331.031C547.052 331.031 539.564 322.742 539.564 312.516C539.564 302.29 547.052 294 556.288 294C565.525 294 550.315 301.692 550.315 311.918Z" fill="#1859A6"/>
<ellipse cx="145.179" cy="92.5782" rx="40.615" ry="92.5782" fill="#3B95D7"/>
<path d="M140.766 18.6931C143.155 16.0827 144.518 16.0515 146.978 18.6935L145.597 174.326C144.393 176.17 143.255 175.884 142.146 174.326L140.766 18.6931Z" fill="white"/>
<path d="M150.428 27.3224C152.227 26.995 153.217 26.9396 154.914 27.3224C159.224 28.5735 161.537 29.4199 165.267 31.4634C165.573 32.8889 165.547 33.5468 165.267 34.5691C164.045 36.0561 163.278 36.7133 161.816 37.6749C155.803 38.1935 152.467 37.9477 146.632 35.6044C139.371 37.3035 136.034 38.8469 132.484 43.5413C131.606 45.0377 132.002 46.1614 134.554 48.7175C142.16 51.6983 146.38 53.5239 153.534 58.0348C156.768 59.7888 157.928 61.2346 159.4 64.2462C161.432 69.614 161.348 72.3093 159.4 76.6692C157.987 79.724 151.553 84.2186 135.244 94.6135C133.626 96.6265 133.394 98.0596 134.209 101.17C138.613 105.674 141.53 108.007 149.048 111.178C152.924 113.261 154.841 114.755 158.02 117.734C159.982 122.05 160.403 124.382 157.675 128.087C151.894 135.056 147.703 137.701 139.04 140.855C137.76 142.033 137.637 142.594 138.35 143.27C142.403 145.939 144.765 147.164 149.048 149.137C150.68 150.205 151.437 150.909 152.154 152.587C153.348 155.205 153.311 156.45 152.499 158.454C148.97 162 146.194 162.873 140.421 163.285C138.962 163.455 138.225 163.515 136.97 163.285C142.63 160.964 145.694 159.657 147.667 157.074V154.658C140.072 151.817 136.608 149.694 131.794 144.996C130.504 142.987 130.297 141.747 131.794 139.129C138.017 133.87 151.118 127.396 151.808 126.016C152.499 124.636 152.236 124.196 150.428 121.185C141.955 117.532 137.628 114.974 130.413 109.797C126.613 105.869 125.135 103.375 125.927 97.3742C126.565 92.7198 127.469 90.0797 130.413 85.2963C137.164 79.5208 141.623 77.3425 150.083 74.2536C152.005 71.7332 152.217 70.2992 150.773 67.6971C139.512 62.3917 134.183 59.3633 126.617 53.8938C123.93 51.4423 124.547 50.4429 123.857 45.6118C123.167 40.7806 124.498 37.9889 127.308 34.5691C130.665 31.3035 133.017 30.0815 138.35 29.3929C142.036 29.0668 144.084 29.0104 147.667 29.3929C148.364 28.3472 148.928 27.8685 150.428 27.3224Z" fill="white"/>
<ellipse cx="153.879" cy="31.8087" rx="2.0705" ry="1.03525" fill="#22539D"/>
<circle cx="491.402" cy="108.103" r="40.615" fill="#3B95D7"/>
<rect x="480.65" y="79.4346" width="21.502" height="56.1442" fill="white"/>
<rect x="519.474" y="96.7559" width="21.502" height="56.1442" transform="rotate(90 519.474 96.7559)" fill="white"/>
<circle cx="450.787" cy="169.026" r="15.5292" fill="#3B95D7"/>
<path d="M110.555 411C110.187 411 109.867 410.864 109.595 410.592C109.339 410.32 109.211 410 109.211 409.632V409.08C109.211 408.152 109.459 407.32 109.955 406.584L116.555 396.84V396.816L116.579 396.792C116.579 396.776 116.571 396.768 116.555 396.768H110.555C110.187 396.768 109.867 396.632 109.595 396.36C109.339 396.088 109.211 395.768 109.211 395.4V394.848C109.211 394.48 109.339 394.16 109.595 393.888C109.867 393.616 110.187 393.48 110.555 393.48H120.011C120.379 393.48 120.691 393.616 120.947 393.888C121.219 394.16 121.355 394.48 121.355 394.848V395.4C121.355 396.328 121.107 397.16 120.611 397.896L114.011 407.64V407.664L113.987 407.688C113.987 407.704 113.995 407.712 114.011 407.712H120.011C120.379 407.712 120.691 407.848 120.947 408.12C121.219 408.392 121.355 408.712 121.355 409.08V409.632C121.355 410 121.219 410.32 120.947 410.592C120.691 410.864 120.379 411 120.011 411H110.555ZM129.927 405.288C127.975 405.288 126.999 405.888 126.999 407.088C126.999 407.52 127.127 407.864 127.383 408.12C127.639 408.36 127.983 408.48 128.415 408.48C129.183 408.48 129.807 408.24 130.287 407.76C130.767 407.264 131.007 406.608 131.007 405.792V405.504C131.007 405.36 130.935 405.288 130.791 405.288H129.927ZM127.239 411.24C126.135 411.24 125.223 410.888 124.503 410.184C123.799 409.464 123.447 408.536 123.447 407.4C123.447 404.488 125.607 403.032 129.927 403.032H130.791C130.935 403.032 131.007 402.968 131.007 402.84V402.72C131.007 402.112 130.847 401.672 130.527 401.4C130.223 401.128 129.703 400.992 128.967 400.992C127.991 400.992 126.823 401.144 125.463 401.448C125.127 401.512 124.823 401.44 124.551 401.232C124.295 401.024 124.167 400.752 124.167 400.416V400.368C124.167 399.968 124.287 399.608 124.527 399.288C124.783 398.952 125.103 398.752 125.487 398.688C126.895 398.416 128.111 398.28 129.135 398.28C131.231 398.28 132.711 398.656 133.575 399.408C134.455 400.16 134.895 401.408 134.895 403.152V409.632C134.895 410 134.759 410.32 134.487 410.592C134.215 410.864 133.895 411 133.527 411H132.639C132.255 411 131.927 410.872 131.655 410.616C131.383 410.344 131.239 410.016 131.223 409.632V409.368C131.223 409.352 131.215 409.344 131.199 409.344C131.167 409.344 131.151 409.352 131.151 409.368C130.143 410.616 128.839 411.24 127.239 411.24ZM142.175 406.2C140.447 405.88 139.207 405.384 138.455 404.712C137.719 404.04 137.351 403.152 137.351 402.048C137.351 400.864 137.791 399.944 138.671 399.288C139.567 398.616 140.911 398.28 142.703 398.28C143.759 398.28 144.839 398.368 145.943 398.544C146.327 398.608 146.639 398.792 146.879 399.096C147.135 399.4 147.263 399.752 147.263 400.152V400.272C147.263 400.608 147.127 400.88 146.855 401.088C146.599 401.296 146.303 401.368 145.967 401.304C144.927 401.096 143.967 400.992 143.087 400.992C142.431 400.992 141.967 401.072 141.695 401.232C141.439 401.392 141.311 401.632 141.311 401.952C141.311 402.56 141.791 402.96 142.751 403.152C144.575 403.456 145.847 403.936 146.567 404.592C147.303 405.248 147.671 406.2 147.671 407.448C147.671 408.648 147.223 409.584 146.327 410.256C145.431 410.912 144.127 411.24 142.415 411.24C141.167 411.24 139.983 411.12 138.863 410.88C138.479 410.8 138.159 410.6 137.903 410.28C137.663 409.944 137.543 409.568 137.543 409.152V408.96C137.543 408.624 137.679 408.368 137.951 408.192C138.223 408 138.527 407.944 138.863 408.024C139.903 408.296 140.927 408.432 141.935 408.432C143.119 408.432 143.711 408.088 143.711 407.4C143.711 407.08 143.599 406.832 143.375 406.656C143.167 406.48 142.767 406.328 142.175 406.2ZM150.784 401.712C150.416 401.712 150.096 401.584 149.824 401.328C149.552 401.056 149.416 400.736 149.416 400.368C149.416 400 149.552 399.68 149.824 399.408C150.096 399.136 150.416 399 150.784 399H151.744C151.872 399 151.936 398.928 151.936 398.784V395.808C151.936 395.44 152.072 395.12 152.344 394.848C152.616 394.576 152.936 394.44 153.304 394.44H154.456C154.824 394.44 155.144 394.576 155.416 394.848C155.688 395.12 155.824 395.44 155.824 395.808V398.784C155.824 398.928 155.896 399 156.04 399H158.392C158.76 399 159.072 399.136 159.328 399.408C159.6 399.68 159.736 400 159.736 400.368C159.736 400.736 159.6 401.056 159.328 401.328C159.072 401.584 158.76 401.712 158.392 401.712H156.04C155.896 401.712 155.824 401.784 155.824 401.928V406.032C155.824 407.04 155.912 407.68 156.088 407.952C156.28 408.224 156.696 408.36 157.336 408.36C157.672 408.36 157.936 408.344 158.128 408.312C158.48 408.264 158.792 408.344 159.064 408.552C159.336 408.76 159.472 409.032 159.472 409.368V409.56C159.472 409.96 159.344 410.312 159.088 410.616C158.832 410.92 158.504 411.096 158.104 411.144C157.608 411.208 157.032 411.24 156.376 411.24C154.744 411.24 153.592 410.896 152.92 410.208C152.264 409.504 151.936 408.248 151.936 406.44V401.928C151.936 401.784 151.872 401.712 151.744 401.712H150.784ZM169.896 401.88C169.512 401.288 168.92 400.992 168.12 400.992C167.32 400.992 166.72 401.288 166.32 401.88C165.936 402.472 165.744 403.432 165.744 404.76C165.744 406.088 165.936 407.048 166.32 407.64C166.72 408.232 167.32 408.528 168.12 408.528C168.92 408.528 169.512 408.232 169.896 407.64C170.296 407.048 170.496 406.088 170.496 404.76C170.496 403.432 170.296 402.472 169.896 401.88ZM172.752 409.536C171.648 410.672 170.104 411.24 168.12 411.24C166.136 411.24 164.592 410.672 163.488 409.536C162.384 408.4 161.832 406.808 161.832 404.76C161.832 402.712 162.384 401.12 163.488 399.984C164.592 398.848 166.136 398.28 168.12 398.28C170.104 398.28 171.648 398.848 172.752 399.984C173.856 401.12 174.408 402.712 174.408 404.76C174.408 406.808 173.856 408.4 172.752 409.536ZM181.198 406.2C179.47 405.88 178.23 405.384 177.478 404.712C176.742 404.04 176.374 403.152 176.374 402.048C176.374 400.864 176.814 399.944 177.694 399.288C178.59 398.616 179.934 398.28 181.726 398.28C182.782 398.28 183.862 398.368 184.966 398.544C185.35 398.608 185.662 398.792 185.902 399.096C186.158 399.4 186.286 399.752 186.286 400.152V400.272C186.286 400.608 186.15 400.88 185.878 401.088C185.622 401.296 185.326 401.368 184.99 401.304C183.95 401.096 182.99 400.992 182.11 400.992C181.454 400.992 180.99 401.072 180.718 401.232C180.462 401.392 180.334 401.632 180.334 401.952C180.334 402.56 180.814 402.96 181.774 403.152C183.598 403.456 184.87 403.936 185.59 404.592C186.326 405.248 186.694 406.2 186.694 407.448C186.694 408.648 186.246 409.584 185.35 410.256C184.454 410.912 183.15 411.24 181.438 411.24C180.19 411.24 179.006 411.12 177.886 410.88C177.502 410.8 177.182 410.6 176.926 410.28C176.686 409.944 176.566 409.568 176.566 409.152V408.96C176.566 408.624 176.702 408.368 176.974 408.192C177.246 408 177.55 407.944 177.886 408.024C178.926 408.296 179.95 408.432 180.958 408.432C182.142 408.432 182.734 408.088 182.734 407.4C182.734 407.08 182.622 406.832 182.398 406.656C182.19 406.48 181.79 406.328 181.198 406.2ZM193.396 411.24C191.988 411.24 190.964 410.848 190.324 410.064C189.7 409.28 189.388 407.936 189.388 406.032V399.888C189.388 399.52 189.524 399.2 189.796 398.928C190.068 398.656 190.388 398.52 190.756 398.52H191.812C192.18 398.52 192.5 398.656 192.772 398.928C193.044 399.2 193.18 399.52 193.18 399.888V405.768C193.18 406.696 193.3 407.336 193.54 407.688C193.796 408.024 194.228 408.192 194.836 408.192C195.396 408.192 195.908 407.968 196.372 407.52C196.836 407.056 197.068 406.56 197.068 406.032V399.888C197.068 399.52 197.204 399.2 197.476 398.928C197.748 398.656 198.068 398.52 198.436 398.52H199.588C199.956 398.52 200.276 398.656 200.548 398.928C200.82 399.2 200.956 399.52 200.956 399.888V409.632C200.956 410 200.82 410.32 200.548 410.592C200.276 410.864 199.956 411 199.588 411H198.604C198.22 411 197.892 410.872 197.62 410.616C197.364 410.344 197.228 410.016 197.212 409.632V409.44C197.212 409.424 197.204 409.416 197.188 409.416L197.14 409.464C196.1 410.648 194.852 411.24 193.396 411.24ZM203.437 416.256C203.069 416.272 202.757 416.144 202.501 415.872C202.229 415.6 202.093 415.28 202.093 414.912V414.624C202.093 414.24 202.229 413.92 202.501 413.664C202.757 413.408 203.077 413.264 203.461 413.232C204.501 413.168 205.173 412.968 205.477 412.632C205.781 412.312 205.933 411.688 205.933 410.76V399.888C205.933 399.52 206.061 399.2 206.317 398.928C206.589 398.656 206.909 398.52 207.277 398.52H208.645C209.013 398.52 209.333 398.656 209.605 398.928C209.877 399.2 210.013 399.52 210.013 399.888V410.76C210.013 412.776 209.565 414.168 208.669 414.936C207.789 415.72 206.045 416.16 203.437 416.256ZM208.645 393C209.013 393 209.333 393.136 209.605 393.408C209.877 393.68 210.013 394 210.013 394.368V394.752C210.013 395.12 209.877 395.44 209.605 395.712C209.333 395.984 209.013 396.12 208.645 396.12H207.277C206.909 396.12 206.589 395.984 206.317 395.712C206.061 395.44 205.933 395.12 205.933 394.752V394.368C205.933 394 206.061 393.68 206.317 393.408C206.589 393.136 206.909 393 207.277 393H208.645ZM232.533 393H233.901C234.269 393 234.589 393.136 234.861 393.408C235.133 393.68 235.269 394 235.269 394.368V394.752C235.269 395.12 235.133 395.44 234.861 395.712C234.589 395.984 234.269 396.12 233.901 396.12H232.533C232.165 396.12 231.845 395.984 231.573 395.712C231.317 395.44 231.189 395.12 231.189 394.752V394.368C231.189 394 231.317 393.68 231.573 393.408C231.845 393.136 232.165 393 232.533 393ZM221.661 401.712C221.293 401.712 220.973 401.584 220.701 401.328C220.429 401.056 220.293 400.736 220.293 400.368C220.293 400 220.429 399.68 220.701 399.408C220.973 399.136 221.293 399 221.661 399H222.405C222.549 399 222.621 398.928 222.621 398.784V398.352C222.621 396.592 223.005 395.304 223.773 394.488C224.557 393.656 225.757 393.24 227.373 393.24C227.949 393.24 228.453 393.272 228.885 393.336C229.269 393.384 229.589 393.568 229.845 393.888C230.101 394.208 230.229 394.568 230.229 394.968V395.04C230.229 395.376 230.093 395.648 229.821 395.856C229.549 396.048 229.245 396.12 228.909 396.072C228.781 396.056 228.589 396.048 228.333 396.048C227.661 396.048 227.205 396.2 226.965 396.504C226.741 396.808 226.629 397.416 226.629 398.328V398.784C226.629 398.928 226.693 399 226.821 399H233.901C234.269 399 234.589 399.136 234.861 399.408C235.133 399.68 235.269 400 235.269 400.368V409.632C235.269 410 235.133 410.32 234.861 410.592C234.589 410.864 234.269 411 233.901 411H232.533C232.165 411 231.845 410.864 231.573 410.592C231.317 410.32 231.189 410 231.189 409.632V401.928C231.189 401.784 231.117 401.712 230.973 401.712H226.821C226.693 401.712 226.629 401.784 226.629 401.928V409.632C226.629 410 226.493 410.32 226.221 410.592C225.949 410.864 225.629 411 225.261 411H223.989C223.621 411 223.301 410.864 223.029 410.592C222.757 410.32 222.621 410 222.621 409.632V401.928C222.621 401.784 222.549 401.712 222.405 401.712H221.661ZM240.531 411C240.163 411 239.843 410.864 239.571 410.592C239.299 410.32 239.163 410 239.163 409.632V394.368C239.163 394 239.299 393.68 239.571 393.408C239.843 393.136 240.163 393 240.531 393H241.875C242.243 393 242.563 393.136 242.835 393.408C243.107 393.68 243.243 394 243.243 394.368V409.632C243.243 410 243.107 410.32 242.835 410.592C242.563 410.864 242.243 411 241.875 411H240.531ZM247.768 401.712C247.4 401.712 247.08 401.584 246.808 401.328C246.536 401.056 246.4 400.736 246.4 400.368C246.4 400 246.536 399.68 246.808 399.408C247.08 399.136 247.4 399 247.768 399H248.728C248.856 399 248.92 398.928 248.92 398.784V395.808C248.92 395.44 249.056 395.12 249.328 394.848C249.6 394.576 249.92 394.44 250.288 394.44H251.44C251.808 394.44 252.128 394.576 252.4 394.848C252.672 395.12 252.808 395.44 252.808 395.808V398.784C252.808 398.928 252.88 399 253.024 399H255.376C255.744 399 256.056 399.136 256.312 399.408C256.584 399.68 256.72 400 256.72 400.368C256.72 400.736 256.584 401.056 256.312 401.328C256.056 401.584 255.744 401.712 255.376 401.712H253.024C252.88 401.712 252.808 401.784 252.808 401.928V406.032C252.808 407.04 252.896 407.68 253.072 407.952C253.264 408.224 253.68 408.36 254.32 408.36C254.656 408.36 254.92 408.344 255.112 408.312C255.464 408.264 255.776 408.344 256.048 408.552C256.32 408.76 256.456 409.032 256.456 409.368V409.56C256.456 409.96 256.328 410.312 256.072 410.616C255.816 410.92 255.488 411.096 255.088 411.144C254.592 411.208 254.016 411.24 253.36 411.24C251.728 411.24 250.576 410.896 249.904 410.208C249.248 409.504 248.92 408.248 248.92 406.44V401.928C248.92 401.784 248.856 401.712 248.728 401.712H247.768ZM261.235 411C260.867 411 260.547 410.864 260.275 410.592C260.019 410.32 259.891 410 259.891 409.632V399.888C259.891 399.52 260.019 399.2 260.275 398.928C260.547 398.656 260.867 398.52 261.235 398.52H262.411C262.779 398.52 263.091 398.656 263.347 398.928C263.619 399.2 263.755 399.52 263.755 399.888V400.896C263.755 400.912 263.763 400.92 263.779 400.92C263.811 400.92 263.827 400.912 263.827 400.896C264.819 399.568 266.203 398.792 267.979 398.568C268.347 398.52 268.659 398.632 268.915 398.904C269.187 399.176 269.323 399.504 269.323 399.888V400.08C269.323 400.448 269.187 400.768 268.915 401.04C268.659 401.312 268.339 401.464 267.955 401.496C266.659 401.64 265.651 402.088 264.931 402.84C264.227 403.576 263.875 404.536 263.875 405.72V409.632C263.875 410 263.739 410.32 263.467 410.592C263.211 410.864 262.899 411 262.531 411H261.235ZM275.344 410.808L271.288 399.792C271.16 399.488 271.192 399.2 271.384 398.928C271.576 398.656 271.84 398.52 272.176 398.52H273.688C274.072 398.52 274.424 398.648 274.744 398.904C275.064 399.144 275.272 399.456 275.368 399.84L277.192 407.304C277.192 407.32 277.2 407.328 277.216 407.328C277.232 407.328 277.24 407.32 277.24 407.304L279.424 399.816C279.52 399.432 279.728 399.12 280.048 398.88C280.384 398.64 280.76 398.52 281.176 398.52H282.496C282.816 398.52 283.072 398.656 283.264 398.928C283.456 399.2 283.496 399.488 283.384 399.792L277.72 415.008C277.576 415.392 277.336 415.696 277 415.92C276.664 416.16 276.296 416.28 275.896 416.28H274.576C274.24 416.28 273.984 416.144 273.808 415.872C273.632 415.616 273.608 415.336 273.736 415.032L275.344 411.192C275.36 411.128 275.368 411.064 275.368 411C275.368 410.936 275.36 410.872 275.344 410.808ZM294.413 411C294.045 411 293.725 410.864 293.453 410.592C293.181 410.32 293.045 410 293.045 409.632V399.888C293.045 399.52 293.181 399.2 293.453 398.928C293.725 398.656 294.045 398.52 294.413 398.52H295.757C296.125 398.52 296.445 398.656 296.717 398.928C296.989 399.2 297.125 399.52 297.125 399.888V409.632C297.125 410 296.989 410.32 296.717 410.592C296.445 410.864 296.125 411 295.757 411H294.413ZM294.413 396.12C294.045 396.12 293.725 395.984 293.453 395.712C293.181 395.44 293.045 395.12 293.045 394.752V394.368C293.045 394 293.181 393.68 293.453 393.408C293.725 393.136 294.045 393 294.413 393H295.757C296.125 393 296.445 393.136 296.717 393.408C296.989 393.68 297.125 394 297.125 394.368V394.752C297.125 395.12 296.989 395.44 296.717 395.712C296.445 395.984 296.125 396.12 295.757 396.12H294.413ZM309.331 411C308.963 411 308.643 410.864 308.371 410.592C308.115 410.32 307.987 410 307.987 409.632V394.368C307.987 394 308.115 393.68 308.371 393.408C308.643 393.136 308.963 393 309.331 393H310.507C310.875 393 311.187 393.136 311.443 393.408C311.715 393.68 311.851 394 311.851 394.368V403.224C311.851 403.24 311.859 403.248 311.875 403.248L311.923 403.224L314.923 399.576C315.499 398.872 316.235 398.52 317.131 398.52H318.859C319.115 398.52 319.299 398.64 319.411 398.88C319.539 399.12 319.515 399.344 319.339 399.552L315.235 404.376C315.155 404.472 315.155 404.576 315.235 404.688L319.387 409.944C319.547 410.168 319.563 410.4 319.435 410.64C319.323 410.88 319.131 411 318.859 411H317.131C316.235 411 315.507 410.64 314.947 409.92L311.923 405.984C311.907 405.968 311.891 405.96 311.875 405.96C311.859 405.96 311.851 405.968 311.851 405.984V409.632C311.851 410 311.715 410.32 311.443 410.592C311.187 410.864 310.875 411 310.507 411H309.331ZM323.945 411C323.577 411 323.257 410.864 322.985 410.592C322.713 410.32 322.577 410 322.577 409.632V394.368C322.577 394 322.713 393.68 322.985 393.408C323.257 393.136 323.577 393 323.945 393H325.289C325.657 393 325.977 393.136 326.249 393.408C326.521 393.68 326.657 394 326.657 394.368V409.632C326.657 410 326.521 410.32 326.249 410.592C325.977 410.864 325.657 411 325.289 411H323.945ZM331.913 411C331.545 411 331.225 410.864 330.953 410.592C330.681 410.32 330.545 410 330.545 409.632V399.888C330.545 399.52 330.681 399.2 330.953 398.928C331.225 398.656 331.545 398.52 331.913 398.52H333.257C333.625 398.52 333.945 398.656 334.217 398.928C334.489 399.2 334.625 399.52 334.625 399.888V409.632C334.625 410 334.489 410.32 334.217 410.592C333.945 410.864 333.625 411 333.257 411H331.913ZM331.913 396.12C331.545 396.12 331.225 395.984 330.953 395.712C330.681 395.44 330.545 395.12 330.545 394.752V394.368C330.545 394 330.681 393.68 330.953 393.408C331.225 393.136 331.545 393 331.913 393H333.257C333.625 393 333.945 393.136 334.217 393.408C334.489 393.68 334.625 394 334.625 394.368V394.752C334.625 395.12 334.489 395.44 334.217 395.712C333.945 395.984 333.625 396.12 333.257 396.12H331.913ZM339.847 411C339.479 411 339.159 410.864 338.887 410.592C338.631 410.32 338.503 410 338.503 409.632V394.368C338.503 394 338.631 393.68 338.887 393.408C339.159 393.136 339.479 393 339.847 393H341.023C341.391 393 341.703 393.136 341.959 393.408C342.231 393.68 342.367 394 342.367 394.368V403.224C342.367 403.24 342.375 403.248 342.391 403.248L342.439 403.224L345.439 399.576C346.015 398.872 346.751 398.52 347.647 398.52H349.375C349.631 398.52 349.815 398.64 349.927 398.88C350.055 399.12 350.031 399.344 349.855 399.552L345.751 404.376C345.671 404.472 345.671 404.576 345.751 404.688L349.903 409.944C350.063 410.168 350.079 410.4 349.951 410.64C349.839 410.88 349.647 411 349.375 411H347.647C346.751 411 346.023 410.64 345.463 409.92L342.439 405.984C342.423 405.968 342.407 405.96 342.391 405.96C342.375 405.96 342.367 405.968 342.367 405.984V409.632C342.367 410 342.231 410.32 341.959 410.592C341.703 410.864 341.391 411 341.023 411H339.847ZM353.836 411C353.468 411 353.148 410.864 352.876 410.592C352.62 410.32 352.492 410 352.492 409.632V399.888C352.492 399.52 352.62 399.2 352.876 398.928C353.148 398.656 353.468 398.52 353.836 398.52H354.82C355.204 398.52 355.524 398.656 355.78 398.928C356.052 399.184 356.196 399.504 356.212 399.888L356.236 400.08C356.236 400.096 356.244 400.104 356.26 400.104L356.308 400.056C357.348 398.872 358.596 398.28 360.052 398.28C361.508 398.28 362.556 398.696 363.196 399.528C363.836 400.344 364.156 401.744 364.156 403.728V409.632C364.156 410 364.02 410.32 363.748 410.592C363.492 410.864 363.18 411 362.812 411H361.756C361.388 411 361.068 410.864 360.796 410.592C360.524 410.32 360.388 410 360.388 409.632V403.848C360.388 402.888 360.26 402.232 360.004 401.88C359.748 401.512 359.284 401.328 358.612 401.328C358.052 401.328 357.532 401.56 357.052 402.024C356.588 402.472 356.356 402.96 356.356 403.488V409.632C356.356 410 356.22 410.32 355.948 410.592C355.692 410.864 355.38 411 355.012 411H353.836ZM369.179 411C368.811 411 368.491 410.864 368.219 410.592C367.947 410.32 367.811 410 367.811 409.632V399.888C367.811 399.52 367.947 399.2 368.219 398.928C368.491 398.656 368.811 398.52 369.179 398.52H370.523C370.891 398.52 371.211 398.656 371.483 398.928C371.755 399.2 371.891 399.52 371.891 399.888V409.632C371.891 410 371.755 410.32 371.483 410.592C371.211 410.864 370.891 411 370.523 411H369.179ZM369.179 396.12C368.811 396.12 368.491 395.984 368.219 395.712C367.947 395.44 367.811 395.12 367.811 394.752V394.368C367.811 394 367.947 393.68 368.219 393.408C368.491 393.136 368.811 393 369.179 393H370.523C370.891 393 371.211 393.136 371.483 393.408C371.755 393.68 371.891 394 371.891 394.368V394.752C371.891 395.12 371.755 395.44 371.483 395.712C371.211 395.984 370.891 396.12 370.523 396.12H369.179ZM374.952 416.256C374.584 416.272 374.272 416.144 374.016 415.872C373.744 415.6 373.608 415.28 373.608 414.912V414.624C373.608 414.24 373.744 413.92 374.016 413.664C374.272 413.408 374.592 413.264 374.976 413.232C376.016 413.168 376.688 412.968 376.992 412.632C377.296 412.312 377.448 411.688 377.448 410.76V399.888C377.448 399.52 377.576 399.2 377.832 398.928C378.104 398.656 378.424 398.52 378.792 398.52H380.16C380.528 398.52 380.848 398.656 381.12 398.928C381.392 399.2 381.528 399.52 381.528 399.888V410.76C381.528 412.776 381.08 414.168 380.184 414.936C379.304 415.72 377.56 416.16 374.952 416.256ZM380.16 393C380.528 393 380.848 393.136 381.12 393.408C381.392 393.68 381.528 394 381.528 394.368V394.752C381.528 395.12 381.392 395.44 381.12 395.712C380.848 395.984 380.528 396.12 380.16 396.12H378.792C378.424 396.12 378.104 395.984 377.832 395.712C377.576 395.44 377.448 395.12 377.448 394.752V394.368C377.448 394 377.576 393.68 377.832 393.408C378.104 393.136 378.424 393 378.792 393H380.16ZM396.753 406.2C395.025 405.88 393.785 405.384 393.033 404.712C392.297 404.04 391.929 403.152 391.929 402.048C391.929 400.864 392.369 399.944 393.249 399.288C394.145 398.616 395.489 398.28 397.281 398.28C398.337 398.28 399.417 398.368 400.521 398.544C400.905 398.608 401.217 398.792 401.457 399.096C401.713 399.4 401.841 399.752 401.841 400.152V400.272C401.841 400.608 401.705 400.88 401.433 401.088C401.177 401.296 400.881 401.368 400.545 401.304C399.505 401.096 398.545 400.992 397.665 400.992C397.009 400.992 396.545 401.072 396.273 401.232C396.017 401.392 395.889 401.632 395.889 401.952C395.889 402.56 396.369 402.96 397.329 403.152C399.153 403.456 400.425 403.936 401.145 404.592C401.881 405.248 402.249 406.2 402.249 407.448C402.249 408.648 401.801 409.584 400.905 410.256C400.009 410.912 398.705 411.24 396.993 411.24C395.745 411.24 394.561 411.12 393.441 410.88C393.057 410.8 392.737 410.6 392.481 410.28C392.241 409.944 392.121 409.568 392.121 409.152V408.96C392.121 408.624 392.257 408.368 392.529 408.192C392.801 408 393.105 407.944 393.441 408.024C394.481 408.296 395.505 408.432 396.513 408.432C397.697 408.432 398.289 408.088 398.289 407.4C398.289 407.08 398.177 406.832 397.953 406.656C397.745 406.48 397.345 406.328 396.753 406.2ZM405.692 407.232L410.54 401.304V401.256C410.54 401.24 410.532 401.232 410.516 401.232H406.196C405.828 401.232 405.508 401.104 405.236 400.848C404.964 400.576 404.828 400.256 404.828 399.888C404.828 399.52 404.964 399.2 405.236 398.928C405.508 398.656 405.828 398.52 406.196 398.52H414.02C414.388 398.52 414.708 398.656 414.98 398.928C415.252 399.2 415.388 399.52 415.388 399.888C415.388 400.784 415.1 401.584 414.524 402.288L409.676 408.216V408.264C409.676 408.28 409.684 408.288 409.7 408.288H414.02C414.388 408.288 414.708 408.424 414.98 408.696C415.252 408.952 415.388 409.264 415.388 409.632C415.388 410 415.252 410.32 414.98 410.592C414.708 410.864 414.388 411 414.02 411H406.196C405.828 411 405.508 410.864 405.236 410.592C404.964 410.32 404.828 410 404.828 409.632C404.828 408.736 405.116 407.936 405.692 407.232ZM422.451 411.24C421.043 411.24 420.019 410.848 419.379 410.064C418.755 409.28 418.443 407.936 418.443 406.032V399.888C418.443 399.52 418.579 399.2 418.851 398.928C419.123 398.656 419.443 398.52 419.811 398.52H420.867C421.235 398.52 421.555 398.656 421.827 398.928C422.099 399.2 422.235 399.52 422.235 399.888V405.768C422.235 406.696 422.355 407.336 422.595 407.688C422.851 408.024 423.283 408.192 423.891 408.192C424.451 408.192 424.963 407.968 425.427 407.52C425.891 407.056 426.123 406.56 426.123 406.032V399.888C426.123 399.52 426.259 399.2 426.531 398.928C426.803 398.656 427.123 398.52 427.491 398.52H428.643C429.011 398.52 429.331 398.656 429.603 398.928C429.875 399.2 430.011 399.52 430.011 399.888V409.632C430.011 410 429.875 410.32 429.603 410.592C429.331 410.864 429.011 411 428.643 411H427.659C427.275 411 426.947 410.872 426.675 410.616C426.419 410.344 426.283 410.016 426.267 409.632V409.44C426.267 409.424 426.259 409.416 426.243 409.416L426.195 409.464C425.155 410.648 423.907 411.24 422.451 411.24ZM434.652 411C434.284 411 433.964 410.864 433.692 410.592C433.436 410.32 433.308 410 433.308 409.632V394.368C433.308 394 433.436 393.68 433.692 393.408C433.964 393.136 434.284 393 434.652 393H435.828C436.196 393 436.508 393.136 436.764 393.408C437.036 393.68 437.172 394 437.172 394.368V403.224C437.172 403.24 437.18 403.248 437.196 403.248L437.244 403.224L440.244 399.576C440.82 398.872 441.556 398.52 442.452 398.52H444.18C444.436 398.52 444.62 398.64 444.732 398.88C444.86 399.12 444.836 399.344 444.66 399.552L440.556 404.376C440.476 404.472 440.476 404.576 440.556 404.688L444.708 409.944C444.868 410.168 444.884 410.4 444.756 410.64C444.644 410.88 444.452 411 444.18 411H442.452C441.556 411 440.828 410.64 440.268 409.92L437.244 405.984C437.228 405.968 437.212 405.96 437.196 405.96C437.18 405.96 437.172 405.968 437.172 405.984V409.632C437.172 410 437.036 410.32 436.764 410.592C436.508 410.864 436.196 411 435.828 411H434.652ZM452.568 405.288C450.616 405.288 449.64 405.888 449.64 407.088C449.64 407.52 449.768 407.864 450.024 408.12C450.28 408.36 450.624 408.48 451.056 408.48C451.824 408.48 452.448 408.24 452.928 407.76C453.408 407.264 453.648 406.608 453.648 405.792V405.504C453.648 405.36 453.576 405.288 453.432 405.288H452.568ZM449.88 411.24C448.776 411.24 447.864 410.888 447.144 410.184C446.44 409.464 446.088 408.536 446.088 407.4C446.088 404.488 448.248 403.032 452.568 403.032H453.432C453.576 403.032 453.648 402.968 453.648 402.84V402.72C453.648 402.112 453.488 401.672 453.168 401.4C452.864 401.128 452.344 400.992 451.608 400.992C450.632 400.992 449.464 401.144 448.104 401.448C447.768 401.512 447.464 401.44 447.192 401.232C446.936 401.024 446.808 400.752 446.808 400.416V400.368C446.808 399.968 446.928 399.608 447.168 399.288C447.424 398.952 447.744 398.752 448.128 398.688C449.536 398.416 450.752 398.28 451.776 398.28C453.872 398.28 455.352 398.656 456.216 399.408C457.096 400.16 457.536 401.408 457.536 403.152V409.632C457.536 410 457.4 410.32 457.128 410.592C456.856 410.864 456.536 411 456.168 411H455.28C454.896 411 454.568 410.872 454.296 410.616C454.024 410.344 453.88 410.016 453.864 409.632V409.368C453.864 409.352 453.856 409.344 453.84 409.344C453.808 409.344 453.792 409.352 453.792 409.368C452.784 410.616 451.48 411.24 449.88 411.24ZM459.89 416.256C459.522 416.272 459.21 416.144 458.954 415.872C458.682 415.6 458.546 415.28 458.546 414.912V414.624C458.546 414.24 458.682 413.92 458.954 413.664C459.21 413.408 459.53 413.264 459.914 413.232C460.954 413.168 461.626 412.968 461.93 412.632C462.234 412.312 462.386 411.688 462.386 410.76V399.888C462.386 399.52 462.514 399.2 462.77 398.928C463.042 398.656 463.362 398.52 463.73 398.52H465.098C465.466 398.52 465.786 398.656 466.058 398.928C466.33 399.2 466.466 399.52 466.466 399.888V410.76C466.466 412.776 466.018 414.168 465.122 414.936C464.242 415.72 462.498 416.16 459.89 416.256ZM465.098 393C465.466 393 465.786 393.136 466.058 393.408C466.33 393.68 466.466 394 466.466 394.368V394.752C466.466 395.12 466.33 395.44 466.058 395.712C465.786 395.984 465.466 396.12 465.098 396.12H463.73C463.362 396.12 463.042 395.984 462.77 395.712C462.514 395.44 462.386 395.12 462.386 394.752V394.368C462.386 394 462.514 393.68 462.77 393.408C463.042 393.136 463.362 393 463.73 393H465.098ZM473.122 405.48C472.738 405.48 472.41 405.352 472.138 405.096C471.882 404.824 471.738 404.496 471.706 404.112L471.226 394.848C471.21 394.48 471.33 394.16 471.586 393.888C471.842 393.616 472.154 393.48 472.522 393.48H474.682C475.05 393.48 475.362 393.616 475.618 393.888C475.89 394.16 476.01 394.48 475.978 394.848L475.522 404.112C475.506 404.496 475.354 404.824 475.066 405.096C474.794 405.352 474.466 405.48 474.082 405.48H473.122ZM474.322 407.4C474.69 407.4 475.01 407.536 475.282 407.808C475.554 408.08 475.69 408.4 475.69 408.768V409.632C475.69 410 475.554 410.32 475.282 410.592C475.01 410.864 474.69 411 474.322 411H472.882C472.514 411 472.194 410.864 471.922 410.592C471.65 410.32 471.514 410 471.514 409.632V408.768C471.514 408.4 471.65 408.08 471.922 407.808C472.194 407.536 472.514 407.4 472.882 407.4H474.322Z" fill="white"/>
<path d="M279.98 157.904H320.39C316.951 172.521 316.091 170.801 319.53 192.296L277.401 191.436C281.7 181.118 279.981 181.118 279.98 157.904Z" fill="#FBDBCE"/>
<ellipse cx="298.897" cy="199.174" rx="35.2511" ry="13.7565" fill="#FBDBCE"/>
<rect x="270.523" y="347.057" width="61.9045" height="10.3174" fill="#5A4336"/>
<path d="M258.487 192.296H272.243C297.356 212.303 310.654 204.583 330.709 192.296H342.746V347.057H258.487V192.296Z" fill="#2B3F5E"/>
<path fill-rule="evenodd" clip-rule="evenodd" d="M366.084 203.455C356.849 194.474 346.998 191.397 326.534 187.119C328.687 221.224 328.423 239.785 323.954 271.378C323.878 318.816 324.413 346.698 325.768 377.942H365.218C362.395 320.886 362.419 277.377 366.084 203.455Z" fill="white"/>
<path d="M230.973 195.735L229.255 242.164C208.619 282.574 233.552 323.843 267.084 364.253C275.446 374.33 233.552 364.253 233.552 364.253C233.552 364.253 141.556 271.396 230.973 195.735Z" fill="white"/>
<path fill-rule="evenodd" clip-rule="evenodd" d="M261.647 189.146C250.449 189.351 245.496 189.441 230.973 195.735C226.968 252.578 228.451 286.949 229.941 321.485C230.706 339.236 231.474 357.03 231.499 377.942H283.76L283.653 374.575C282.576 340.569 281.741 314.194 280.388 271.396C274.133 245.355 273.176 221.917 271.897 190.59C271.874 190.015 271.85 189.437 271.827 188.856C267.838 189.033 264.535 189.093 261.647 189.146Z" fill="white"/>
<path d="M259.112 359.094C259.112 365.267 252.122 362.533 242.151 362.533C232.179 362.533 224.095 357.529 224.095 351.356C224.095 345.183 231.944 341.898 241.916 341.898C251.888 341.898 259.112 352.921 259.112 359.094Z" fill="#FBDBCE"/>
<path d="M227.534 357.374C240.301 359.762 249.162 359.681 261.926 357.374V367.936C249.554 369.813 244.159 369.745 230.973 367.691L227.534 357.374Z" fill="#F2F2F2"/>
<path d="M359.325 199.175L361.043 245.603C381.68 286.013 360.801 322.984 327.269 363.394C318.907 373.471 356.746 367.692 356.746 367.692C356.746 367.692 448.742 274.836 359.325 199.175Z" fill="white"/>
<path d="M331.187 362.533C331.187 368.706 338.176 365.972 348.148 365.972C358.119 365.972 366.203 360.968 366.203 354.795C366.203 348.622 358.354 345.337 348.382 345.337C338.411 345.337 331.187 356.36 331.187 362.533Z" fill="#FBDBCE"/>
<path d="M362.764 360.813C349.997 363.202 341.136 363.121 328.372 360.813V371.376C340.744 373.253 346.139 373.184 359.325 371.131L362.764 360.813Z" fill="#F2F2F2"/>
<ellipse cx="298.897" cy="138.99" rx="31.812" ry="39.5501" fill="#FBDBCE"/>
<ellipse cx="299.756" cy="108.037" rx="29.2327" ry="12.037" fill="#6D4201"/>
<ellipse cx="273.103" cy="124.373" rx="4.29892" ry="19.775" fill="#6D4201"/>
<path d="M288.28 153.166C299.9 157.462 306.596 157.535 317.691 153.166C317.691 153.166 319.895 150.718 317.691 157.629C315.487 164.539 296.745 169.793 288.28 156.885C287.468 155.904 287.598 155.012 288.28 153.166Z" fill="white"/>
<path d="M267.445 263.076C276.043 232.123 265.559 208.909 253.688 208.909C241.817 208.909 231.335 237.282 241.652 263.076" stroke="black" stroke-width="2"/>
<circle cx="242.512" cy="263.075" r="1.71992" fill="#C4C4C4"/>
<circle cx="266.585" cy="263.075" r="1.71992" fill="#C4C4C4"/>
<line x1="244.731" y1="216.146" x2="264.366" y2="216.146" stroke="#1E50CF" stroke-linecap="round"/>
<path d="M253.957 208.249C253.082 186.546 259.364 190.577 272.243 187.997" stroke="#1E50CF" stroke-width="2"/>
<path d="M324.753 187.491C334.148 187.491 347.683 212.776 344.466 231.846" stroke="#1E50CF" stroke-width="2"/>
<circle cx="343.605" cy="236.145" r="6.01849" fill="#C4C4C4"/>
<rect x="87.5645" y="352.191" width="414" height="25.7512" fill="#937B60"/>
<rect x="97.4688" y="298.048" width="15.1866" height="54.1435" rx="1" fill="#D3BE00"/>
<rect x="113.316" y="298.048" width="13.2057" height="54.1435" rx="1" fill="#D09278"/>
<rect x="126.521" y="301.099" width="14.5263" height="54.1435" rx="1" transform="rotate(-20.268 126.521 301.099)" fill="#567A8A"/>
<rect x="453.363" y="297.596" width="1.98086" height="32.3541" transform="rotate(-6.02693 453.363 297.596)" fill="#552121"/>
<rect x="458.771" y="300.028" width="1.98086" height="32.3541" transform="rotate(0.221686 458.771 300.028)" fill="#9E7C5C"/>
<rect x="476.482" y="303.33" width="1.98086" height="32.3541" transform="rotate(8.22869 476.482 303.33)" fill="black"/>
<path d="M453.363 311.914C463.549 313.593 469.049 313.622 478.454 311.914V352.192H453.363V311.914Z" fill="#D7B690"/>
<rect x="270.464" y="321.158" width="48.8612" height="20.4689" fill="#B6B6B6"/>
<rect x="211.038" y="235.98" width="167.053" height="85.177" fill="#D1D0D0"/>
<rect x="246.033" y="341.627" width="97.7225" height="10.5646" fill="#B6B6B6"/>
</svg>
