<svg width="380" height="549" viewBox="0 0 380 549" fill="none" xmlns="http://www.w3.org/2000/svg">
<path d="M162.09 113.906H236.445C230.117 140.8 228.535 137.636 234.863 177.187L157.344 175.605C165.254 156.62 162.09 156.62 162.09 113.906Z" fill="#FBDBCE"/>
<ellipse cx="196.895" cy="189.843" rx="64.8631" ry="25.3124" fill="#FBDBCE"/>
<rect x="144.688" y="461.952" width="113.906" height="18.9843" fill="#5A4336"/>
<path d="M122.54 177.187H147.852C194.06 214 218.53 199.796 255.43 177.187H277.578V461.952H122.54V177.187Z" fill="#2B3F5E"/>
<path d="M154.18 480.936H211.133L206.252 547.381H154.18V480.936Z" fill="#C4C4C4"/>
<path d="M261.758 480.936H204.805L209.687 547.381H261.758V480.936Z" fill="#C4C4C4"/>
<path d="M245.938 167.695C283.593 175.566 301.719 181.228 318.711 197.753C311.337 346.482 311.974 428.301 318.711 548.963H245.938C242.403 477.772 241.027 424.9 241.192 322.733C249.414 264.602 249.901 230.448 245.938 167.695Z" fill="#2E99D6"/>
<path fill-rule="evenodd" clip-rule="evenodd" d="M128.356 171.392C107.751 171.768 98.6375 171.935 71.9144 183.515C64.5459 288.109 67.2737 351.353 70.0147 414.899C71.7552 455.254 73.5013 495.732 72.6697 547H169.938L168.833 512.121C166.858 449.773 165.322 401.288 162.839 322.733C151.329 274.818 149.569 231.69 147.217 174.048L147.086 170.859C139.746 171.183 133.669 171.294 128.356 171.392Z" fill="#2E99D6"/>
<path d="M71.9139 183.515L68.7532 268.945C30.781 343.3 76.6595 419.237 138.359 493.592C153.745 512.135 76.6596 493.592 76.6596 493.592C76.6596 493.592 -92.6158 322.733 71.9139 183.515Z" fill="#2E99D6"/>
<path d="M123.69 484.1C123.69 495.458 110.83 490.428 92.4816 490.428C74.1333 490.428 59.259 481.22 59.259 469.862C59.259 458.503 73.7013 452.459 92.0496 452.459C110.398 452.459 123.69 472.742 123.69 484.1Z" fill="#FBDBCE"/>
<path d="M65.5869 480.936C89.0786 485.331 105.383 485.181 128.868 480.936V500.371C106.104 503.825 96.1776 503.698 71.915 499.92L65.5869 480.936Z" fill="#F2F2F2"/>
<path d="M308.086 189.843L311.247 275.273C349.219 349.628 310.801 417.655 249.102 492.01C233.715 510.553 303.34 499.92 303.34 499.92C303.34 499.92 472.616 329.062 308.086 189.843Z" fill="#2E99D6"/>
<path d="M256.31 490.428C256.31 501.787 269.17 496.756 287.518 496.756C305.867 496.756 320.741 487.548 320.741 476.19C320.741 464.831 306.299 458.788 287.95 458.788C269.602 458.788 256.31 479.07 256.31 490.428Z" fill="#FBDBCE"/>
<path d="M314.413 487.264C290.921 491.659 274.617 491.509 251.132 487.264V506.699C273.896 510.153 283.822 510.027 308.085 506.248L314.413 487.264Z" fill="#F2F2F2"/>
<ellipse cx="196.895" cy="79.1013" rx="58.535" ry="72.7732" fill="#FBDBCE"/>
<ellipse cx="198.477" cy="22.1484" rx="53.7889" ry="22.1484" fill="#6D4201"/>
<ellipse cx="149.434" cy="52.2069" rx="7.91013" ry="36.3866" fill="#6D4201"/>
<path d="M177.361 105.188C198.742 113.092 211.064 113.227 231.479 105.188C231.479 105.188 235.535 100.684 231.479 113.399C227.424 126.115 192.938 135.782 177.361 112.031C175.868 110.227 176.107 108.584 177.361 105.188Z" fill="white"/>
<path d="M139.763 365.448C155.583 308.495 136.294 265.78 114.45 265.78C92.6073 265.78 73.3198 317.987 92.303 365.448" stroke="black" stroke-width="2"/>
<circle cx="93.8848" cy="365.448" r="3.16405" fill="#C4C4C4"/>
<circle cx="138.182" cy="365.448" r="3.16405" fill="#C4C4C4"/>
<line x1="97.5491" y1="279.519" x2="134.518" y2="279.519" stroke="#1E50CF" stroke-linecap="round"/>
<path d="M114.662 265.469C113.052 225.534 124.154 174.023 147.852 169.277" stroke="#1E50CF" stroke-width="2"/>
<path d="M244.472 168.346C261.758 168.346 286.664 214.87 280.745 249.961" stroke="#1E50CF" stroke-width="2"/>
<circle cx="279.16" cy="257.871" r="11.0742" fill="#C4C4C4"/>
</svg>
