<svg width="623" height="502" viewBox="0 0 623 502" fill="none" xmlns="http://www.w3.org/2000/svg">
<path d="M575.712 251.742C424.828 275.56 513.594 303.704 529.465 359.248C588.851 497.224 405.424 497.224 308.131 497.224C74.912 523.72 129.544 411.216 40.5498 251.742C-48.4445 92.2687 25.42 91.6717 105.255 91.6717C185.091 91.6717 138.888 56.8838 308.131 6.26074C477.373 -44.3623 726.595 227.924 575.712 251.742Z" fill="#0075DE" fill-opacity="0.4"/>
<path d="M280.929 143.345H340.784C335.69 164.994 334.416 162.447 339.51 194.285L277.109 193.012C283.476 177.729 280.929 177.729 280.929 143.345Z" fill="#FBDBCE"/>
<ellipse cx="308.947" cy="204.473" rx="52.2138" ry="20.3761" fill="#FBDBCE"/>
<rect x="266.921" y="423.516" width="91.6926" height="15.2821" fill="#5A4336"/>
<path d="M249.092 194.285H269.468C306.665 223.918 326.362 212.484 356.066 194.285H373.895V423.516H249.092V194.285Z" fill="#2B3F5E"/>
<path d="M274.562 438.798H320.408L316.478 492.286H274.562V438.798Z" fill="#C4C4C4"/>
<path d="M361.16 438.798H315.314L319.244 492.285H361.16V438.798Z" fill="#C4C4C4"/>
<path d="M208.339 199.379C235.397 187.653 240.027 190.465 268.851 189.191C270.8 236.886 272.097 272.168 281.532 311.448C283.905 386.545 285.204 427.505 287.296 493.559C287.296 493.559 208.897 508.57 208.897 494.833C208.897 481.096 198.554 338.273 208.339 199.379Z" fill="white"/>
<path d="M348.425 186.644C378.737 192.98 393.328 197.538 407.007 210.84C401.071 330.564 401.584 396.428 407.007 493.559H348.425C345.58 436.251 344.472 393.69 344.605 311.447C351.224 264.652 351.615 237.159 348.425 186.644Z" fill="white"/>
<path d="M208.338 199.378L205.794 268.148C175.227 328.003 212.159 389.131 261.826 448.986C274.211 463.913 212.159 448.986 212.159 448.986C212.159 448.986 75.8944 311.447 208.338 199.378Z" fill="white"/>
<path d="M250.018 441.345C250.018 450.489 239.665 446.439 224.895 446.439C210.125 446.439 198.151 439.027 198.151 429.884C198.151 420.74 209.777 415.875 224.547 415.875C239.318 415.875 250.018 432.202 250.018 441.345Z" fill="#FBDBCE"/>
<path d="M203.245 438.798C222.156 442.336 235.28 442.216 254.186 438.798V454.443C235.861 457.223 227.87 457.122 208.339 454.08L203.245 438.798Z" fill="#F2F2F2"/>
<rect x="300.776" y="318.949" width="87.2027" height="117.067" transform="rotate(-11.8204 300.776 318.949)" fill="#9E7C5C"/>
<rect x="309.015" y="323.327" width="72.868" height="106.316" transform="rotate(-11.8204 309.015 323.327)" fill="white"/>
<rect x="323.916" y="312.886" width="39.4204" height="14.3347" transform="rotate(-11.8204 323.916 312.886)" fill="#C4C4C4"/>
<rect x="330.143" y="301.819" width="22.6966" height="9.55646" transform="rotate(-11.8204 330.143 301.819)" fill="#C4C4C4"/>
<rect x="316.873" y="337.548" width="64.5061" height="3.58367" transform="rotate(-11.8204 316.873 337.548)" fill="#E0E0E0"/>
<rect x="318.831" y="346.902" width="64.5061" height="3.58367" transform="rotate(-11.8204 318.831 346.902)" fill="#E0E0E0"/>
<rect x="320.788" y="356.256" width="64.5061" height="3.58367" transform="rotate(-11.8204 320.788 356.256)" fill="#E0E0E0"/>
<rect x="322.746" y="365.61" width="64.5061" height="3.58367" transform="rotate(-11.8204 322.746 365.61)" fill="#E0E0E0"/>
<rect x="324.703" y="374.964" width="64.5061" height="3.58367" transform="rotate(-11.8204 324.703 374.964)" fill="#E0E0E0"/>
<rect x="326.661" y="384.317" width="64.5061" height="3.58367" transform="rotate(-11.8204 326.661 384.317)" fill="#E0E0E0"/>
<rect x="328.619" y="393.671" width="64.5061" height="3.58367" transform="rotate(-11.8204 328.619 393.671)" fill="#E0E0E0"/>
<rect x="330.576" y="403.025" width="64.5061" height="3.58367" transform="rotate(-11.8204 330.576 403.025)" fill="#E0E0E0"/>
<rect x="332.534" y="412.379" width="64.5061" height="3.58367" transform="rotate(-11.8204 332.534 412.379)" fill="#E0E0E0"/>
<path d="M364.775 396.069C364.775 405.212 354.422 401.163 339.652 401.163C332.068 401.163 323.151 405.394 318.284 402.254C313.673 399.28 312.311 385.201 312.311 380.752C312.311 371.609 334.758 371.196 339.652 368.209C354.422 368.209 364.775 386.925 364.775 396.069Z" fill="#FBDBCE"/>
<path d="M398.454 204.473L402.501 275.632C447.894 367.015 400.401 340.138 336.203 370.002C335.582 370.29 337.397 405.838 339.478 405.838C341.56 405.838 482.196 374.741 482.825 376.572C483.455 378.402 478.355 258.908 398.454 204.473Z" fill="white"/>
<path d="M403.547 443.893C384.636 447.43 371.512 447.31 352.606 443.893V459.538C370.931 462.318 378.922 462.216 398.453 459.175L403.547 443.893Z" fill="#F2F2F2"/>
<ellipse cx="308.946" cy="115.327" rx="47.1198" ry="58.5814" fill="#FBDBCE"/>
<ellipse cx="310.22" cy="69.481" rx="43.2993" ry="17.8291" fill="#6D4201"/>
<ellipse cx="270.741" cy="93.6779" rx="6.36754" ry="29.2907" fill="#6D4201"/>
<path d="M293.222 136.327C310.433 142.689 320.352 142.798 336.786 136.327C336.786 136.327 340.051 132.701 336.786 142.937C333.522 153.173 305.761 160.954 293.222 141.835C292.02 140.383 292.212 139.06 293.222 136.327Z" fill="white"/>
<path d="M262.36 299.123C275.095 253.277 259.567 218.892 241.984 218.892C224.401 218.892 208.874 260.918 224.156 299.123" stroke="black" stroke-width="2"/>
<circle cx="225.429" cy="299.123" r="2.54702" fill="#C4C4C4"/>
<circle cx="261.087" cy="299.123" r="2.54702" fill="#C4C4C4"/>
<line x1="228.476" y1="229.854" x2="258.041" y2="229.854" stroke="#1E50CF" stroke-linecap="round"/>
<path d="M242.382 217.915C241.087 185.768 250.391 191.739 269.468 187.918" stroke="#1E50CF" stroke-width="2"/>
<path d="M347.245 187.168C361.16 187.168 381.209 224.619 376.444 252.866" stroke="#1E50CF" stroke-width="2"/>
<circle cx="375.169" cy="259.234" r="8.91456" fill="#C4C4C4"/>
<rect x="62.0515" y="492.443" width="493.352" height="9.55646" fill="#17568F"/>
<path d="M514.789 290.563C514.789 300.789 529.998 309.676 520.762 309.676C511.525 309.676 504.038 301.387 504.038 291.161C504.038 280.935 511.525 272.645 520.762 272.645C529.998 272.645 514.789 280.337 514.789 290.563Z" fill="#0075DE" fill-opacity="0.4"/>
<path d="M74.594 354.472C71.0104 377.766 108.042 442.869 123.571 487.665C98.8305 487.665 74.594 464.372 43.5355 371.793C43.5355 304.83 -6.29042 246.365 18.4497 246.365C30.9927 264.283 53.6893 297.731 74.594 354.472Z" fill="#0075DE" fill-opacity="0.4"/>
<ellipse cx="97.8882" cy="111.977" rx="40.615" ry="92.5782" fill="#3991E1"/>
<path d="M93.4749 38.0921C95.8641 35.4817 97.2266 35.4504 99.6863 38.0924L98.306 193.724C97.1018 195.569 95.964 195.283 94.8552 193.724L93.4749 38.0921Z" fill="white"/>
<path d="M103.137 46.7213C104.936 46.3939 105.926 46.3386 107.623 46.7213C111.933 47.9725 114.246 48.8188 117.976 50.8623C118.282 52.2878 118.256 52.9458 117.976 53.968C116.754 55.455 115.987 56.1122 114.525 57.0738C108.512 57.5924 105.176 57.3466 99.3412 55.0033C92.0803 56.7024 88.7432 58.2458 85.1928 62.9402C84.3148 64.4366 84.7106 65.5603 87.2633 68.1164C94.8692 71.0973 99.0889 72.9228 106.243 77.4337C109.477 79.1878 110.637 80.6335 112.109 83.6452C114.141 89.0129 114.057 91.7082 112.109 96.0682C110.696 99.123 104.262 103.618 87.9535 114.012C86.3351 116.025 86.1028 117.458 86.9182 120.569C91.3223 125.073 94.2391 127.406 101.757 130.576C105.633 132.66 107.55 134.154 110.729 137.133C112.691 141.449 113.112 143.781 110.384 147.486C104.603 154.455 100.412 157.1 91.7494 160.254C90.4694 161.432 90.3458 161.993 91.0592 162.669C95.1115 165.338 97.474 166.563 101.757 168.536C103.389 169.604 104.146 170.308 104.863 171.986C106.057 174.604 106.02 175.849 105.208 177.853C101.679 181.399 98.9031 182.272 93.1297 182.684C91.6706 182.853 90.9339 182.914 89.6789 182.684C95.339 180.363 98.4033 179.056 100.376 176.472V174.057C92.7814 171.216 89.3167 169.093 84.5026 164.395C83.2125 162.386 83.0061 161.146 84.5026 158.528C90.7258 153.269 103.827 146.795 104.517 145.415C105.208 144.035 104.945 143.595 103.137 140.584C94.6637 136.931 90.3366 134.373 83.1223 129.196C79.3223 125.268 77.8439 122.774 78.6362 116.773C79.2737 112.119 80.1781 109.479 83.1223 104.695C89.873 98.9197 94.3324 96.7414 102.792 93.6526C104.714 91.1321 104.926 89.6981 103.482 87.096C92.2206 81.7906 86.8921 78.7622 79.3264 73.2927C76.6394 70.8413 77.2559 69.8419 76.5657 65.0107C75.8755 60.1795 77.2072 57.3878 80.0166 53.968C83.3741 50.7024 85.7262 49.4804 91.0592 48.7918C94.7447 48.4657 96.7928 48.4094 100.376 48.7918C101.073 47.7461 101.637 47.2674 103.137 46.7213Z" fill="white"/>
<ellipse cx="106.588" cy="51.2071" rx="2.0705" ry="1.03525" fill="#22539D"/>
<circle cx="482.536" cy="128.103" r="40.615" fill="#3991E1"/>
<rect x="471.785" y="99.4341" width="21.502" height="56.1442" fill="white"/>
<rect x="510.608" y="116.755" width="21.502" height="56.1442" transform="rotate(90 510.608 116.755)" fill="white"/>
<circle cx="154.032" cy="193.804" r="15.5292" fill="#3991E1"/>
<circle cx="441.921" cy="189.026" r="15.5292" fill="#3991E1"/>
</svg>
