<svg width="260" height="162" viewBox="0 0 260 162" fill="none" xmlns="http://www.w3.org/2000/svg">
<rect x="150.394" y="3.06186" width="44.6052" height="44.6052" transform="rotate(75 150.394 3.06186)" stroke="white" stroke-width="5"/>
<rect x="141.147" y="15.9486" width="44.6052" height="44.6052" transform="rotate(75 141.147 15.9486)" stroke="white" stroke-width="5"/>
<path d="M10.125 117.68H26.1094V123H3.51562V88.875H10.125V117.68ZM44.4375 123.469C42.4844 123.469 40.7109 123.148 39.1172 122.508C37.5234 121.867 36.1562 121 35.0156 119.906C33.875 118.797 32.9922 117.5 32.3672 116.016C31.7578 114.516 31.4531 112.914 31.4531 111.211V110.273C31.4531 108.336 31.7578 106.57 32.3672 104.977C32.9766 103.367 33.8281 101.984 34.9219 100.828C36.0156 99.6719 37.3125 98.7734 38.8125 98.1328C40.3125 97.4922 41.9453 97.1719 43.7109 97.1719C45.5391 97.1719 47.1641 97.4766 48.5859 98.0859C50.0234 98.6797 51.2344 99.5234 52.2188 100.617C53.2188 101.711 53.9766 103.031 54.4922 104.578C55.0078 106.109 55.2656 107.805 55.2656 109.664V112.43H38.0625C38.1875 113.289 38.4375 114.078 38.8125 114.797C39.2031 115.5 39.6953 116.109 40.2891 116.625C40.8828 117.141 41.5625 117.539 42.3281 117.82C43.0938 118.102 43.9297 118.242 44.8359 118.242C45.4766 118.242 46.1094 118.18 46.7344 118.055C47.375 117.93 47.9844 117.75 48.5625 117.516C49.1406 117.266 49.6797 116.961 50.1797 116.602C50.6797 116.242 51.1172 115.82 51.4922 115.336L54.75 118.852C54.3438 119.43 53.8125 120 53.1562 120.562C52.5156 121.109 51.75 121.602 50.8594 122.039C49.9844 122.461 49.0078 122.805 47.9297 123.07C46.8516 123.336 45.6875 123.469 44.4375 123.469ZM43.6641 102.445C42.9297 102.445 42.2578 102.578 41.6484 102.844C41.0391 103.094 40.5 103.461 40.0312 103.945C39.5781 104.43 39.1953 105.008 38.8828 105.68C38.5703 106.352 38.3359 107.102 38.1797 107.93H48.8672V107.414C48.8359 106.727 48.7031 106.078 48.4688 105.469C48.2344 104.859 47.8984 104.336 47.4609 103.898C47.0234 103.445 46.4844 103.094 45.8438 102.844C45.2188 102.578 44.4922 102.445 43.6641 102.445ZM70.5 112.523L67.5469 115.266V123H61.0312V87H67.5469V107.578L69.5156 105.328L76.5234 97.6406H84.3516L74.7891 108.211L85.6875 123H77.6953L70.5 112.523ZM105.633 123C105.477 122.688 105.344 122.328 105.234 121.922C105.125 121.516 105.031 121.086 104.953 120.633C104.594 121.023 104.18 121.391 103.711 121.734C103.242 122.078 102.719 122.383 102.141 122.648C101.578 122.898 100.953 123.094 100.266 123.234C99.5781 123.391 98.8359 123.469 98.0391 123.469C96.7422 123.469 95.5469 123.281 94.4531 122.906C93.375 122.531 92.4453 122.008 91.6641 121.336C90.8828 120.664 90.2734 119.867 89.8359 118.945C89.3984 118.008 89.1797 116.992 89.1797 115.898C89.1797 113.227 90.1719 111.164 92.1562 109.711C94.1562 108.242 97.1328 107.508 101.086 107.508H104.719V106.008C104.719 104.789 104.32 103.828 103.523 103.125C102.727 102.406 101.578 102.047 100.078 102.047C98.75 102.047 97.7812 102.336 97.1719 102.914C96.5625 103.477 96.2578 104.234 96.2578 105.188H89.7422C89.7422 104.109 89.9766 103.086 90.4453 102.117C90.9297 101.148 91.625 100.297 92.5312 99.5625C93.4531 98.8281 94.5703 98.25 95.8828 97.8281C97.2109 97.3906 98.7266 97.1719 100.43 97.1719C101.961 97.1719 103.383 97.3594 104.695 97.7344C106.023 98.1094 107.172 98.6641 108.141 99.3984C109.109 100.133 109.867 101.062 110.414 102.188C110.961 103.297 111.234 104.586 111.234 106.055V116.93C111.234 118.289 111.32 119.414 111.492 120.305C111.664 121.195 111.914 121.961 112.242 122.602V123H105.633ZM99.4219 118.43C100.078 118.43 100.688 118.352 101.25 118.195C101.812 118.039 102.32 117.836 102.773 117.586C103.227 117.336 103.617 117.055 103.945 116.742C104.273 116.414 104.531 116.086 104.719 115.758V111.398H101.391C100.375 111.398 99.5078 111.5 98.7891 111.703C98.0703 111.891 97.4844 112.164 97.0312 112.523C96.5781 112.867 96.2422 113.289 96.0234 113.789C95.8047 114.273 95.6953 114.805 95.6953 115.383C95.6953 116.258 96 116.984 96.6094 117.562C97.2344 118.141 98.1719 118.43 99.4219 118.43ZM136.828 97.1719C137.812 97.1719 138.719 97.2422 139.547 97.3828C140.391 97.5078 141.07 97.6484 141.586 97.8047L140.625 104.297C139.766 104.094 138.883 103.945 137.977 103.852C137.086 103.742 136.234 103.688 135.422 103.688C133.594 103.688 132.125 104.039 131.016 104.742C129.922 105.445 129.102 106.453 128.555 107.766V123H122.039V97.6406H128.109L128.414 101.789C129.445 100.352 130.68 99.2266 132.117 98.4141C133.555 97.5859 135.125 97.1719 136.828 97.1719ZM155.812 117.773H170.742V123H146.906V118.969L161.109 102.938H147.234V97.6406H170.156V101.555L155.812 117.773ZM175.383 110.086C175.383 108.242 175.648 106.539 176.18 104.977C176.711 103.398 177.484 102.031 178.5 100.875C179.531 99.7188 180.781 98.8125 182.25 98.1562C183.734 97.5 185.43 97.1719 187.336 97.1719C189.242 97.1719 190.938 97.5 192.422 98.1562C193.906 98.8125 195.156 99.7188 196.172 100.875C197.203 102.031 197.984 103.398 198.516 104.977C199.047 106.539 199.312 108.242 199.312 110.086V110.578C199.312 112.438 199.047 114.156 198.516 115.734C197.984 117.297 197.211 118.656 196.195 119.812C195.18 120.969 193.93 121.875 192.445 122.531C190.961 123.172 189.273 123.492 187.383 123.492C185.477 123.492 183.773 123.172 182.273 122.531C180.789 121.875 179.531 120.969 178.5 119.812C177.484 118.656 176.711 117.297 176.18 115.734C175.648 114.156 175.383 112.438 175.383 110.578V110.086ZM181.898 110.578C181.898 111.641 182 112.641 182.203 113.578C182.406 114.5 182.727 115.312 183.164 116.016C183.602 116.703 184.164 117.25 184.852 117.656C185.555 118.062 186.398 118.266 187.383 118.266C188.336 118.266 189.156 118.062 189.844 117.656C190.531 117.25 191.086 116.703 191.508 116.016C191.945 115.312 192.266 114.5 192.469 113.578C192.672 112.641 192.773 111.641 192.773 110.578V110.086C192.773 109.055 192.672 108.078 192.469 107.156C192.266 106.234 191.945 105.422 191.508 104.719C191.086 104.016 190.531 103.461 189.844 103.055C189.156 102.648 188.32 102.445 187.336 102.445C186.367 102.445 185.539 102.648 184.852 103.055C184.164 103.461 183.602 104.016 183.164 104.719C182.727 105.422 182.406 106.234 182.203 107.156C182 108.078 181.898 109.055 181.898 110.086V110.578ZM221.32 115.055L223.523 97.6406H229.5L224.953 123H219.234L215.906 106.875L212.695 123H206.977L202.43 97.6406H208.383L210.586 115.125L213.773 97.6406H218.133L221.32 115.055ZM233.039 110.086C233.039 108.242 233.305 106.539 233.836 104.977C234.367 103.398 235.141 102.031 236.156 100.875C237.188 99.7188 238.438 98.8125 239.906 98.1562C241.391 97.5 243.086 97.1719 244.992 97.1719C246.898 97.1719 248.594 97.5 250.078 98.1562C251.562 98.8125 252.812 99.7188 253.828 100.875C254.859 102.031 255.641 103.398 256.172 104.977C256.703 106.539 256.969 108.242 256.969 110.086V110.578C256.969 112.438 256.703 114.156 256.172 115.734C255.641 117.297 254.867 118.656 253.852 119.812C252.836 120.969 251.586 121.875 250.102 122.531C248.617 123.172 246.93 123.492 245.039 123.492C243.133 123.492 241.43 123.172 239.93 122.531C238.445 121.875 237.188 120.969 236.156 119.812C235.141 118.656 234.367 117.297 233.836 115.734C233.305 114.156 233.039 112.438 233.039 110.578V110.086ZM239.555 110.578C239.555 111.641 239.656 112.641 239.859 113.578C240.062 114.5 240.383 115.312 240.82 116.016C241.258 116.703 241.82 117.25 242.508 117.656C243.211 118.062 244.055 118.266 245.039 118.266C245.992 118.266 246.812 118.062 247.5 117.656C248.188 117.25 248.742 116.703 249.164 116.016C249.602 115.312 249.922 114.5 250.125 113.578C250.328 112.641 250.43 111.641 250.43 110.578V110.086C250.43 109.055 250.328 108.078 250.125 107.156C249.922 106.234 249.602 105.422 249.164 104.719C248.742 104.016 248.188 103.461 247.5 103.055C246.812 102.648 245.977 102.445 244.992 102.445C244.023 102.445 243.195 102.648 242.508 103.055C241.82 103.461 241.258 104.016 240.82 104.719C240.383 105.422 240.062 106.234 239.859 107.156C239.656 108.078 239.555 109.055 239.555 110.086V110.578Z" fill="white"/>
<path d="M79.7109 149.609C79.7109 148.955 79.5596 148.403 79.2568 147.954C78.9639 147.505 78.583 147.129 78.1143 146.826C77.6455 146.514 77.1279 146.255 76.5615 146.05C76.0049 145.845 75.4678 145.659 74.9502 145.493C74.1982 145.249 73.4316 144.956 72.6504 144.614C71.8789 144.272 71.1709 143.853 70.5264 143.354C69.8916 142.856 69.3691 142.271 68.959 141.597C68.5586 140.913 68.3584 140.112 68.3584 139.194C68.3584 138.276 68.5586 137.456 68.959 136.733C69.3691 136.011 69.9014 135.4 70.5557 134.902C71.21 134.404 71.9521 134.028 72.7822 133.774C73.6123 133.511 74.4473 133.379 75.2871 133.379C76.2148 133.379 77.1084 133.535 77.9678 133.848C78.8271 134.15 79.5889 134.58 80.2529 135.137C80.917 135.693 81.4492 136.367 81.8496 137.158C82.25 137.949 82.46 138.833 82.4795 139.81H79.6963C79.6182 139.194 79.4668 138.638 79.2422 138.14C79.0176 137.632 78.7197 137.197 78.3486 136.836C77.9775 136.475 77.5332 136.196 77.0156 136.001C76.5078 135.796 75.9316 135.693 75.2871 135.693C74.7695 135.693 74.2617 135.767 73.7637 135.913C73.2754 136.06 72.8359 136.279 72.4453 136.572C72.0645 136.865 71.7568 137.227 71.5225 137.656C71.2979 138.086 71.1855 138.584 71.1855 139.15C71.1953 139.766 71.3516 140.288 71.6543 140.718C71.957 141.138 72.3379 141.494 72.7969 141.787C73.2656 142.08 73.7686 142.324 74.3057 142.52C74.8525 142.715 75.3652 142.886 75.8438 143.032C76.3711 143.198 76.9033 143.389 77.4404 143.604C77.9775 143.809 78.4951 144.048 78.9932 144.321C79.4912 144.595 79.9551 144.902 80.3848 145.244C80.8145 145.586 81.1904 145.977 81.5127 146.416C81.835 146.846 82.084 147.324 82.2598 147.852C82.4453 148.369 82.5381 148.945 82.5381 149.58C82.5381 150.537 82.3232 151.372 81.8936 152.085C81.4736 152.798 80.9268 153.394 80.2529 153.872C79.5791 154.341 78.8174 154.697 77.9678 154.941C77.1182 155.176 76.2686 155.293 75.4189 155.293C74.4717 155.293 73.5439 155.146 72.6357 154.854C71.7275 154.561 70.9121 154.141 70.1895 153.594C69.4766 153.037 68.8955 152.363 68.4463 151.572C67.9971 150.771 67.7578 149.863 67.7285 148.848H70.4971C70.585 149.512 70.7656 150.103 71.0391 150.62C71.3125 151.128 71.6641 151.562 72.0938 151.924C72.5234 152.275 73.0166 152.544 73.5732 152.729C74.1396 152.905 74.7549 152.993 75.4189 152.993C75.9463 152.993 76.4639 152.93 76.9717 152.803C77.4893 152.666 77.9482 152.461 78.3486 152.188C78.749 151.904 79.0762 151.553 79.3301 151.133C79.584 150.703 79.7109 150.195 79.7109 149.609ZM92.3965 149.375L93.0996 151.294L97.9336 139.15H100.966L92.9238 157.446C92.7383 157.856 92.499 158.291 92.2061 158.75C91.9229 159.209 91.5762 159.634 91.166 160.024C90.7559 160.415 90.2773 160.742 89.7305 161.006C89.1836 161.27 88.5537 161.401 87.8408 161.401C87.7139 161.401 87.5723 161.392 87.416 161.372C87.2598 161.362 87.1035 161.343 86.9473 161.313C86.791 161.294 86.6445 161.27 86.5078 161.24C86.3711 161.211 86.2588 161.187 86.1709 161.167L86.6104 158.955C86.6787 158.955 86.7715 158.96 86.8887 158.97C87.0059 158.979 87.1279 158.989 87.2549 158.999C87.3818 159.009 87.5039 159.014 87.6211 159.014C87.7383 159.023 87.8311 159.028 87.8994 159.028C88.2705 159.028 88.6074 158.926 88.9102 158.721C89.2227 158.516 89.4961 158.271 89.7305 157.988C89.9746 157.705 90.1797 157.412 90.3457 157.109C90.5215 156.807 90.6582 156.558 90.7559 156.362L91.8398 154.253L85.0137 139.15H88.0459L92.3965 149.375ZM115.116 150.796C115.116 150.474 115.053 150.186 114.926 149.932C114.799 149.668 114.584 149.429 114.281 149.214C113.979 148.999 113.578 148.804 113.08 148.628C112.582 148.442 111.962 148.276 111.22 148.13C110.312 147.944 109.481 147.72 108.729 147.456C107.987 147.192 107.348 146.88 106.811 146.519C106.283 146.147 105.873 145.718 105.58 145.229C105.287 144.731 105.141 144.155 105.141 143.501C105.141 142.856 105.292 142.256 105.595 141.699C105.897 141.133 106.322 140.64 106.869 140.22C107.416 139.8 108.065 139.468 108.817 139.224C109.579 138.979 110.414 138.857 111.322 138.857C112.299 138.857 113.178 138.984 113.959 139.238C114.74 139.492 115.404 139.844 115.951 140.293C116.498 140.742 116.918 141.27 117.211 141.875C117.514 142.471 117.665 143.115 117.665 143.809H114.955C114.955 143.467 114.867 143.135 114.691 142.812C114.516 142.48 114.271 142.188 113.959 141.934C113.646 141.68 113.266 141.475 112.816 141.318C112.377 141.162 111.879 141.084 111.322 141.084C110.746 141.084 110.238 141.147 109.799 141.274C109.369 141.401 109.008 141.572 108.715 141.787C108.432 142.002 108.217 142.251 108.07 142.534C107.924 142.817 107.851 143.11 107.851 143.413C107.851 143.726 107.909 144.004 108.026 144.248C108.144 144.492 108.344 144.712 108.627 144.907C108.92 145.103 109.306 145.278 109.784 145.435C110.272 145.591 110.888 145.742 111.63 145.889C112.606 146.094 113.48 146.333 114.252 146.606C115.023 146.87 115.673 147.192 116.2 147.573C116.728 147.944 117.128 148.379 117.401 148.877C117.685 149.375 117.826 149.951 117.826 150.605C117.826 151.309 117.665 151.948 117.343 152.524C117.03 153.101 116.591 153.594 116.024 154.004C115.458 154.414 114.779 154.731 113.988 154.956C113.197 155.181 112.333 155.293 111.396 155.293C110.321 155.293 109.364 155.151 108.524 154.868C107.685 154.575 106.972 154.194 106.386 153.726C105.81 153.247 105.365 152.695 105.053 152.07C104.75 151.445 104.599 150.796 104.599 150.122H107.309C107.348 150.679 107.494 151.147 107.748 151.528C108.012 151.909 108.334 152.217 108.715 152.451C109.105 152.686 109.535 152.852 110.004 152.949C110.473 153.047 110.937 153.096 111.396 153.096C112.538 153.096 113.441 152.886 114.105 152.466C114.77 152.046 115.106 151.489 115.116 150.796ZM129.018 135.312V139.15H135.053V141.245H129.018V149.858C129.018 150.474 129.096 150.981 129.252 151.382C129.408 151.782 129.623 152.104 129.896 152.349C130.17 152.583 130.482 152.749 130.834 152.847C131.195 152.944 131.576 152.993 131.977 152.993C132.27 152.993 132.572 152.979 132.885 152.949C133.197 152.91 133.5 152.866 133.793 152.817C134.096 152.769 134.374 152.72 134.628 152.671C134.892 152.612 135.106 152.563 135.272 152.524L135.653 154.443C135.429 154.58 135.155 154.702 134.833 154.81C134.511 154.907 134.159 154.99 133.778 155.059C133.397 155.137 132.992 155.195 132.562 155.234C132.143 155.273 131.723 155.293 131.303 155.293C130.6 155.293 129.94 155.195 129.325 155C128.72 154.795 128.192 154.478 127.743 154.048C127.294 153.608 126.938 153.047 126.674 152.363C126.42 151.67 126.293 150.835 126.293 149.858V141.245H122.133V139.15H126.293V135.312H129.018ZM147.621 155.293C146.508 155.293 145.482 155.103 144.545 154.722C143.617 154.341 142.821 153.809 142.157 153.125C141.493 152.441 140.976 151.631 140.604 150.693C140.233 149.756 140.048 148.735 140.048 147.632V147.017C140.048 145.737 140.253 144.595 140.663 143.589C141.073 142.573 141.615 141.719 142.289 141.025C142.973 140.322 143.744 139.785 144.604 139.414C145.473 139.043 146.361 138.857 147.27 138.857C148.412 138.857 149.408 139.058 150.258 139.458C151.117 139.849 151.83 140.396 152.396 141.099C152.963 141.792 153.383 142.612 153.656 143.56C153.939 144.507 154.081 145.532 154.081 146.636V147.852H142.758C142.787 148.574 142.924 149.253 143.168 149.888C143.422 150.522 143.764 151.079 144.193 151.558C144.633 152.026 145.155 152.397 145.761 152.671C146.366 152.944 147.035 153.081 147.768 153.081C148.734 153.081 149.594 152.886 150.346 152.495C151.098 152.104 151.723 151.587 152.221 150.942L153.876 152.231C153.612 152.632 153.28 153.018 152.88 153.389C152.489 153.75 152.035 154.072 151.518 154.355C151 154.639 150.414 154.863 149.76 155.029C149.105 155.205 148.393 155.293 147.621 155.293ZM147.27 141.084C146.723 141.084 146.205 141.187 145.717 141.392C145.229 141.587 144.789 141.88 144.398 142.271C144.008 142.651 143.676 143.125 143.402 143.691C143.139 144.248 142.953 144.893 142.846 145.625H151.371V145.42C151.342 144.893 151.239 144.37 151.063 143.853C150.897 143.335 150.648 142.871 150.316 142.461C149.984 142.051 149.564 141.719 149.057 141.465C148.559 141.211 147.963 141.084 147.27 141.084ZM159.882 139.15L159.955 140.645C160.277 140.088 160.697 139.653 161.215 139.341C161.742 139.028 162.377 138.867 163.119 138.857C164.574 138.857 165.546 139.424 166.034 140.557C166.347 140.049 166.757 139.644 167.265 139.341C167.782 139.028 168.407 138.867 169.14 138.857C170.302 138.857 171.195 139.214 171.82 139.927C172.445 140.64 172.758 141.719 172.758 143.164V155H170.18V143.135C170.18 141.807 169.569 141.147 168.349 141.157C168.026 141.157 167.748 141.201 167.514 141.289C167.279 141.377 167.084 141.499 166.928 141.655C166.771 141.802 166.649 141.978 166.562 142.183C166.474 142.378 166.415 142.583 166.386 142.798V155H163.808V143.12C163.808 142.485 163.666 141.997 163.383 141.655C163.1 141.313 162.65 141.147 162.035 141.157C161.469 141.157 161.029 141.27 160.717 141.494C160.404 141.719 160.175 142.017 160.028 142.388V155H157.45V139.15H159.882ZM187.187 150.796C187.187 150.474 187.123 150.186 186.996 149.932C186.869 149.668 186.654 149.429 186.352 149.214C186.049 148.999 185.648 148.804 185.15 148.628C184.652 148.442 184.032 148.276 183.29 148.13C182.382 147.944 181.552 147.72 180.8 147.456C180.058 147.192 179.418 146.88 178.881 146.519C178.354 146.147 177.943 145.718 177.65 145.229C177.357 144.731 177.211 144.155 177.211 143.501C177.211 142.856 177.362 142.256 177.665 141.699C177.968 141.133 178.393 140.64 178.939 140.22C179.486 139.8 180.136 139.468 180.888 139.224C181.649 138.979 182.484 138.857 183.393 138.857C184.369 138.857 185.248 138.984 186.029 139.238C186.811 139.492 187.475 139.844 188.021 140.293C188.568 140.742 188.988 141.27 189.281 141.875C189.584 142.471 189.735 143.115 189.735 143.809H187.025C187.025 143.467 186.938 143.135 186.762 142.812C186.586 142.48 186.342 142.188 186.029 141.934C185.717 141.68 185.336 141.475 184.887 141.318C184.447 141.162 183.949 141.084 183.393 141.084C182.816 141.084 182.309 141.147 181.869 141.274C181.439 141.401 181.078 141.572 180.785 141.787C180.502 142.002 180.287 142.251 180.141 142.534C179.994 142.817 179.921 143.11 179.921 143.413C179.921 143.726 179.979 144.004 180.097 144.248C180.214 144.492 180.414 144.712 180.697 144.907C180.99 145.103 181.376 145.278 181.854 145.435C182.343 145.591 182.958 145.742 183.7 145.889C184.677 146.094 185.551 146.333 186.322 146.606C187.094 146.87 187.743 147.192 188.271 147.573C188.798 147.944 189.198 148.379 189.472 148.877C189.755 149.375 189.896 149.951 189.896 150.605C189.896 151.309 189.735 151.948 189.413 152.524C189.101 153.101 188.661 153.594 188.095 154.004C187.528 154.414 186.85 154.731 186.059 154.956C185.268 155.181 184.403 155.293 183.466 155.293C182.392 155.293 181.435 155.151 180.595 154.868C179.755 154.575 179.042 154.194 178.456 153.726C177.88 153.247 177.436 152.695 177.123 152.07C176.82 151.445 176.669 150.796 176.669 150.122H179.379C179.418 150.679 179.564 151.147 179.818 151.528C180.082 151.909 180.404 152.217 180.785 152.451C181.176 152.686 181.605 152.852 182.074 152.949C182.543 153.047 183.007 153.096 183.466 153.096C184.608 153.096 185.512 152.886 186.176 152.466C186.84 152.046 187.177 151.489 187.187 150.796Z" fill="#DBDBDB"/>
</svg>
