<svg width="50" height="50" viewBox="0 0 50 50" fill="none" xmlns="http://www.w3.org/2000/svg">
<path fill-rule="evenodd" clip-rule="evenodd" d="M20.6835 0C16.9199 0.60498 13.4372 2.05078 10.434 4.1377L12.9845 6.68799L7.32764 12.3447L4.67426 9.69141C2.30115 12.854 0.660278 16.5977 0.003479 20.6709H3.68335V28.6709H0C0.606873 32.4551 2.06299 35.9556 4.16681 38.9707L6.7226 36.415L12.3795 42.0718L9.73163 44.7197C12.889 47.0796 16.6227 48.7104 20.6835 49.3633V45.6816H28.6835V49.3633C32.4471 48.7583 35.9297 47.313 38.9329 45.2261L36.3823 42.6753L42.0392 37.0186L44.6926 39.6719C47.0657 36.5093 48.7066 32.7656 49.3635 28.6924H45.6835V20.6924H49.3669C48.7601 16.9082 47.304 13.4082 45.2003 10.3931L42.6444 12.9487L36.9875 7.29199L39.6357 4.64404C36.4782 2.28418 32.7444 0.652832 28.6835 0V3.68164H20.6835V0ZM24.1835 39.6816C32.7439 39.6816 39.6835 32.7422 39.6835 24.1816C39.6835 15.6211 32.7439 8.68164 24.1835 8.68164C15.623 8.68164 8.68347 15.6211 8.68347 24.1816C8.68347 32.7422 15.623 39.6816 24.1835 39.6816Z" fill="white"/>
</svg>
