<svg width="137" height="115" viewBox="0 0 137 115" fill="none" xmlns="http://www.w3.org/2000/svg">
<path fill-rule="evenodd" clip-rule="evenodd" d="M51.0948 64.8262H42.1782V115H96.7921V64.8262H88.9901C75.9916 72.7931 67.372 77.7985 51.0948 64.8262Z" fill="white"/>
<path d="M56.3323 40.7129H82.909C80.647 50.3257 80.0815 49.1947 82.3434 63.3312L54.6362 62.7657C57.4632 55.9802 56.3325 55.9802 56.3323 40.7129Z" fill="#FBDBCE"/>
<ellipse cx="68.7726" cy="67.8549" rx="23.1837" ry="9.04732" fill="#FBDBCE"/>
<path fill-rule="evenodd" clip-rule="evenodd" d="M45.5717 61.4648C38.2068 61.5994 34.9495 61.659 25.398 65.7981C24.2242 82.4596 23.7028 99.2485 23.5669 115H61.5746C61.5506 114.048 61.5234 113.086 61.4927 112.114C60.6966 108.8 59.9012 105.674 59.129 102.64C55.8374 89.7053 52.9675 78.4275 52.2664 61.2744C49.6428 61.3903 47.4707 61.4301 45.5717 61.4648Z" fill="#259D7E"/>
<ellipse cx="68.7725" cy="28.2728" rx="20.9219" ry="26.011" fill="#FBDBCE"/>
<ellipse cx="69.3379" cy="7.9164" rx="19.2255" ry="7.9164" fill="#8C7F53"/>
<ellipse cx="51.8087" cy="18.6598" rx="2.82729" ry="13.0055" fill="#8C7F53"/>
<path d="M61.7903 37.5972C69.4326 40.4223 73.8366 40.4704 81.1336 37.5972C81.1336 37.5972 82.5831 35.9872 81.1336 40.5321C79.6842 45.077 67.358 48.5322 61.7903 40.0429C61.2567 39.3982 61.3419 38.811 61.7903 37.5972Z" fill="white"/>
<path fill-rule="evenodd" clip-rule="evenodd" d="M109.407 71.1294C103.334 65.223 96.8552 63.1993 83.3963 60.3857C84.359 75.6315 82.2258 85.9895 79.8376 97.5856C78.7374 102.928 77.583 108.533 76.6523 115H107.757C108.043 101.936 108.586 87.6937 109.407 71.1294Z" fill="#259D7E"/>
<path d="M52.5809 109.119C58.2355 88.7625 51.3409 73.4951 43.5336 73.4951C35.7263 73.4951 28.8324 92.1552 35.6175 109.119" stroke="#B0B0B0" stroke-width="2"/>
<circle cx="36.1827" cy="109.118" r="1.13091" fill="#C4C4C4"/>
<circle cx="52.0157" cy="109.118" r="1.13091" fill="#C4C4C4"/>
<line x1="37.814" y1="78.084" x2="50.3849" y2="78.084" stroke="#B0B0B0" stroke-linecap="round"/>
<path d="M43.7105 73.0608C43.1352 58.7871 47.2666 61.4382 55.7369 59.7417" stroke="#B0B0B0" stroke-width="2"/>
<path d="M81.6956 59.6575C87.8741 59.6574 96.7761 76.2864 94.6605 88.8286" stroke="#B0B0B0" stroke-width="2"/>
<circle cx="94.0944" cy="91.6564" r="3.9582" fill="#C4C4C4"/>
<path fill-rule="evenodd" clip-rule="evenodd" d="M106.304 99.0857L104.507 67.4902C122.221 79.5587 131.655 98.8294 136.626 115H112.995C111.751 110.853 109.568 105.658 106.304 99.0857Z" fill="#259D7E"/>
<path fill-rule="evenodd" clip-rule="evenodd" d="M24.5709 96.2486L25.7006 65.7139C6.71859 81.7757 0.16748 99.0158 0 115H19.6542C19.8574 108.728 21.3922 102.473 24.5709 96.2486Z" fill="#259D7E"/>
</svg>
